<?xml version="1.0" standalone="no"?>
<!DOCTYPE svg PUBLIC "-//W3C//DTD SVG 20010904//EN"
 "http://www.w3.org/TR/2001/REC-SVG-20010904/DTD/svg10.dtd">
<svg version="1.0" xmlns="http://www.w3.org/2000/svg"
 width="700.000000pt" height="700.000000pt" viewBox="0 0 700.000000 700.000000"
 preserveAspectRatio="xMidYMid meet">
<metadata>
Created by potrace 1.11, written by Peter Selinger 2001-2013
</metadata>
<g transform="translate(0.000000,700.000000) scale(0.100000,-0.100000)"
fill="#000000" stroke="none">
<path d="M2320 6319 c-103 -15 -126 -20 -192 -43 -100 -35 -203 -101 -284
-181 -184 -184 -267 -463 -209 -711 24 -103 145 -464 178 -529 58 -117 163
-229 287 -307 196 -123 451 -145 680 -60 327 122 534 474 483 824 -10 73 -111
407 -160 530 -85 216 -296 398 -531 458 -63 16 -200 26 -252 19z"/>
<path d="M4515 6308 c-82 -9 -197 -47 -275 -90 -61 -34 -164 -113 -195 -150
-102 -119 -135 -185 -219 -444 -84 -254 -98 -322 -95 -449 8 -294 179 -553
447 -676 53 -25 124 -46 217 -65 30 -6 176 -6 210 1 261 48 452 179 573 395
45 80 183 501 197 600 11 77 8 192 -8 267 -34 156 -97 273 -212 388 -172 174
-394 251 -640 223z"/>
<path d="M640 4878 c-206 -50 -352 -135 -464 -273 -111 -137 -167 -288 -171
-462 -7 -288 108 -505 365 -690 222 -160 411 -212 639 -176 272 44 510 243
600 502 19 56 23 71 38 151 18 99 -3 279 -46 387 -60 152 -139 249 -306 374
-122 91 -237 150 -341 175 -76 19 -259 25 -314 12z"/>
<path d="M6072 4854 c-124 -29 -246 -88 -345 -166 -27 -21 -52 -38 -56 -38
-17 0 -158 -148 -194 -203 -154 -232 -173 -526 -50 -772 204 -407 727 -553
1106 -308 262 171 383 319 444 544 23 88 23 290 -1 378 -75 276 -286 485 -561
557 -86 22 -268 26 -343 8z"/>
<path d="M3478 4155 c-2 -2 -38 -5 -81 -6 -43 -1 -99 -5 -125 -9 -26 -4 -70
-10 -99 -14 -208 -24 -534 -151 -757 -293 -177 -113 -389 -307 -503 -460 -32
-43 -61 -80 -64 -83 -16 -12 -117 -184 -165 -280 -63 -128 -140 -340 -159
-439 -2 -13 -6 -30 -9 -39 -3 -9 -7 -33 -10 -52 -3 -19 -8 -45 -10 -58 -21
-98 -30 -614 -14 -747 19 -157 82 -331 167 -465 70 -110 191 -240 276 -298 22
-15 42 -29 45 -32 6 -7 57 -38 114 -70 65 -36 185 -80 270 -100 263 -60 498
-33 767 91 185 84 245 99 394 99 105 0 202 -25 350 -93 115 -52 217 -89 280
-101 17 -4 41 -9 55 -12 40 -8 109 -13 185 -14 385 -4 753 198 966 530 69 107
122 240 155 390 28 126 28 630 -1 820 -98 665 -517 1233 -1130 1533 -161 79
-418 158 -560 173 -33 4 -63 8 -67 11 -4 2 -60 6 -125 9 -65 3 -123 7 -130 9
-6 2 -13 2 -15 0z"/>
</g>
</svg>
