<?xml version="1.0" encoding="utf-8"?>
<!-- Generator: Adobe Illustrator 16.0.0, SVG Export Plug-In . SVG Version: 6.00 Build 0)  -->
<!DOCTYPE svg PUBLIC "-//W3C//DTD SVG 1.1//EN" "http://www.w3.org/Graphics/SVG/1.1/DTD/svg11.dtd">
<svg version="1.1" id="Capa_1" xmlns="http://www.w3.org/2000/svg" xmlns:xlink="http://www.w3.org/1999/xlink" x="0px" y="0px"
	 width="612px" height="792px" viewBox="0 0 612 792" enable-background="new 0 0 612 792" xml:space="preserve">
<g>
	<g>
		<g>
			<path fill="#BA4C20" d="M286.616,396c0-5.633-4.567-10.2-10.2-10.2h-132.6c-5.633,0-10.2,4.567-10.2,10.2s4.567,10.2,10.2,10.2
				h132.6C282.049,406.2,286.616,401.633,286.616,396z"/>
			<path fill="#BA4C20" d="M143.816,243h224.399c5.634,0,10.2-4.567,10.2-10.2c0-5.633-4.566-10.2-10.2-10.2H143.816
				c-5.633,0-10.2,4.567-10.2,10.2C133.616,238.433,138.182,243,143.816,243z"/>
			<path fill="#BA4C20" d="M504.281,305.076c-0.01-0.01-0.019-0.02-0.029-0.03l-14.483-14.484
				c-19.316-19.419-50.57-19.966-70.554-1.234V100.2c0-5.633-4.567-10.2-10.2-10.2h-306c-5.633,0-10.2,4.567-10.2,10.2v591.6
				c0,5.633,4.567,10.2,10.2,10.2h306c5.633,0,10.2-4.567,10.2-10.2V462.137l85.037-85.037
				C524.15,357.218,524.163,324.972,504.281,305.076z M398.816,681.6h-285.6V110.4h285.6v199.063L186.891,521.389
				c-0.167,0.196-0.321,0.404-0.459,0.622c-0.313,0.362-0.601,0.747-0.856,1.152c-0.312,0.484-0.578,0.997-0.796,1.53
				c-0.102,0.234-0.265,0.418-0.357,0.673l-36.108,108.232c-1.78,5.345,1.109,11.121,6.454,12.9c1.04,0.347,2.129,0.523,3.226,0.523
				c1.095,0.003,2.184-0.173,3.223-0.521l108.222-36.108c0.122,0,0.214-0.132,0.336-0.184c0.21-0.073,0.415-0.162,0.612-0.265
				c0.446-0.204,0.875-0.442,1.285-0.714c0.393-0.253,0.768-0.532,1.122-0.837c0.22-0.146,0.43-0.301,0.633-0.469l125.389-125.389
				V681.6z M201.436,538.8h54.58v54.57l-81.896,27.315L201.436,538.8z M276.416,576.091v-43.269l90.78-90.779
				c3.983-3.986,3.98-10.445-0.005-14.428c-3.986-3.983-10.445-3.98-14.428,0.005l-90.78,90.78h-43.258l148.471-148.472
				l57.691,57.691L276.416,576.091z M439.311,413.197l-57.691-57.691l14.443-14.443l57.69,57.691L439.311,413.197z M489.849,362.657
				c-0.007,0.007-0.013,0.013-0.02,0.02l-21.654,21.644l-57.681-57.681l21.645-21.655c12.092-11.538,31.114-11.538,43.207,0
				l14.483,14.484C501.762,331.391,501.77,350.726,489.849,362.657z"/>
		</g>
	</g>
</g>
</svg>
