<?xml version="1.0" encoding="utf-8"?>
<!-- Generator: Adobe Illustrator 16.0.0, SVG Export Plug-In . SVG Version: 6.00 Build 0)  -->
<!DOCTYPE svg PUBLIC "-//W3C//DTD SVG 1.1//EN" "http://www.w3.org/Graphics/SVG/1.1/DTD/svg11.dtd">
<svg version="1.1" xmlns="http://www.w3.org/2000/svg" xmlns:xlink="http://www.w3.org/1999/xlink" x="0px" y="0px" width="1500px"
	 height="1000px" viewBox="0 0 1500 1000" enable-background="new 0 0 1500 1000" xml:space="preserve">
<g id="Capa_2">
	<path fill="#F19E22" d="M0,1000.497h1500V500c0,0-251.275,250.249-750.003,250.249S0,1000.497,0,1000.497z"/>
</g>
<g id="Capa_1">
	<g id="Capa_1_1_">
		<g>
			<path fill="#65513C" d="M893.537,815.044c51.208,0,92.726,41.518,92.726,92.726c0,16.056-4.081,31.154-11.262,44.323h9.78
				c13.367,0,24.202,10.835,24.202,24.202v13.279c0,6.035-4.89,10.926-10.925,10.926H893.538c-51.214,0-92.729-41.517-92.729-92.73
				C800.808,856.562,842.324,815.044,893.537,815.044z"/>
			<path fill="#65513C" d="M606.463,815.044c-51.21,0-92.728,41.518-92.728,92.726c0,16.056,4.083,31.154,11.263,44.323h-9.778
				c-13.367,0-24.203,10.835-24.203,24.202v13.279c0,6.035,4.891,10.926,10.926,10.926h104.521c51.213,0,92.729-41.517,92.729-92.73
				C699.195,856.562,657.678,815.044,606.463,815.044z"/>
			<path fill="#9C7F4D" d="M654.378,1000.5h191.246c42.496,0,77.272-34.774,77.272-77.274V763.031
				c0-95.49-77.409-172.896-172.897-172.896c-95.489,0-172.896,77.406-172.896,172.896v160.194
				C577.104,965.726,611.878,1000.5,654.378,1000.5z"/>
			<path fill="#FFFFFF" d="M577.104,809.488v103.291c23.087-5.839,40.173-26.744,40.173-51.646
				C617.276,836.233,600.19,815.327,577.104,809.488z"/>
			<g>
				<path fill="#9C7F4D" d="M852.591,439.946H647.406c-45.599,0-82.908,37.308-82.908,82.907v86.8
					c0,102.447,83.053,185.498,185.501,185.498c102.446,0,185.497-83.05,185.497-185.498v-86.802
					C935.498,477.254,898.191,439.946,852.591,439.946z"/>
				<path fill="#FFFFFF" d="M820.776,601.29H679.225c-21.804,0-39.478,17.674-39.478,39.478v78.959
					c0,21.804,17.674,39.48,39.478,39.48s39.478-17.677,39.478-39.48v-39.478h62.596v39.478c0,21.804,17.673,39.48,39.477,39.48
					s39.478-17.677,39.478-39.48v-78.958C860.254,618.965,842.579,601.29,820.776,601.29z"/>
				<g>
					<path fill="#FADF8D" d="M706.022,668.455c-6.081,0-8.571-4.31-5.529-9.578l10.708-18.549c3.043-5.269,8.019-5.269,11.062,0
						l10.707,18.549c3.04,5.27,0.553,9.578-5.53,9.578H706.022z"/>
					<path fill="#FADF8D" d="M793.979,668.455c6.08,0,8.571-4.31,5.527-9.578l-10.707-18.549c-3.041-5.269-8.017-5.269-11.061,0
						l-10.708,18.549c-3.043,5.27-0.554,9.578,5.529,9.578H793.979z"/>
					<path fill="#826940" d="M781.702,650.444h-63.406c-14.088,0-25.619,11.527-25.619,25.618v13.979
						c0,31.661,25.663,57.321,57.324,57.321c31.659,0,57.322-25.66,57.322-57.321v-13.979
						C807.322,661.97,795.793,650.444,781.702,650.444z"/>
				</g>
				<path fill="#333E48" d="M768.502,621.336c-9.374,9.724-24.992,9.997-34.703,0.619l-10.84-10.459
					c-9.716-9.383-6.612-17.056,6.894-17.056h40.036c13.506,0,16.884,7.956,7.508,17.673L768.502,621.336z"/>
				<path fill="#65513C" d="M929.257,519.812c-24.852,0.454-45.539-19.519-45.972-44.366l-0.496-27.718
					c-0.437-24.853,13.595-30.806,31.171-13.227l52.109,52.109c17.578,17.578,11.619,32.328-13.232,32.77L929.257,519.812z"/>
				<path fill="#65513C" d="M570.743,519.812c24.853,0.454,45.538-19.519,45.973-44.366l0.494-27.718
					c0.439-24.853-13.592-30.806-31.17-13.227l-52.11,52.109c-17.577,17.578-11.618,32.328,13.231,32.77L570.743,519.812z"/>
				<circle fill="#FFFFFF" cx="846.554" cy="536.15" r="44.742"/>
				<circle fill="#333E48" cx="846.554" cy="536.149" r="16.331"/>
				<circle fill="#333E48" cx="653.446" cy="536.149" r="16.331"/>
			</g>
			<path fill="#826940" d="M702.926,824.626c0-22.396-18.157-40.553-40.552-40.553c-22.396,0-40.552,18.16-40.552,40.553v127.462
				h-33.616c-13.369,0-24.202,10.837-24.202,24.202v13.28c0,6.036,4.889,10.927,10.924,10.927h103.797
				c13.366,0,24.2-10.839,24.2-24.207L702.926,824.626L702.926,824.626z"/>
			<path fill="#826940" d="M797.074,824.626c0-22.396,18.157-40.553,40.552-40.553c22.396,0,40.552,18.16,40.552,40.553v127.462
				h33.613c13.369,0,24.202,10.837,24.202,24.202v13.28c0,6.036-4.89,10.927-10.924,10.927H821.275
				c-13.367,0-24.201-10.839-24.201-24.207V824.626L797.074,824.626L797.074,824.626z"/>
		</g>
	</g>
</g>
</svg>
