<?xml version="1.0" encoding="utf-8"?>
<!-- Generator: Adobe Illustrator 16.0.0, SVG Export Plug-In . SVG Version: 6.00 Build 0)  -->
<!DOCTYPE svg PUBLIC "-//W3C//DTD SVG 1.1//EN" "http://www.w3.org/Graphics/SVG/1.1/DTD/svg11.dtd">
<svg version="1.1" id="Capa_1" xmlns="http://www.w3.org/2000/svg" xmlns:xlink="http://www.w3.org/1999/xlink" x="0px" y="0px"
	 width="1000px" height="1000px" viewBox="0 0 1000 1000" enable-background="new 0 0 1000 1000" xml:space="preserve">
<path fill="#803416" d="M190.918,334.061l-15.68-11.393C125.992,286.889,56.82,297.846,21.045,347.09h-0.002
	c-35.777,49.245-24.822,118.417,24.424,154.196l15.68,11.393c19.551,14.205,42.242,21.043,64.74,21.043
	c34.167,0,67.883-15.773,89.458-45.465C251.118,439.011,240.163,369.839,190.918,334.061z"/>
<path fill="#BA4C20" d="M978.957,349.719L978.957,349.719c-35.777-49.244-104.953-60.203-154.195-24.422l-15.68,11.393
	c-49.244,35.778-60.201,104.95-24.422,154.196c21.576,29.695,55.287,45.465,89.455,45.465c22.494,0,45.191-6.84,64.74-21.043
	l15.68-11.393C1003.779,468.136,1014.734,398.964,978.957,349.719z"/>
<path fill="#803416" d="M252.165,290.374c15.143,46.6,58.526,76.29,105.069,76.29c11.275,0,22.746-1.744,34.035-5.412h0.002
	c28.041-9.111,50.859-28.6,64.248-54.874c13.387-26.273,15.74-56.188,6.627-84.23l-15.939-49.057
	c-9.109-28.043-28.598-50.86-54.873-64.247c-26.271-13.389-56.188-15.742-84.229-6.629c-28.043,9.111-50.862,28.598-64.25,54.874
	c-13.389,26.273-15.742,56.188-6.629,84.23L252.165,290.374z"/>
<g>
	<path fill="#BA4C20" d="M608.728,362.251L608.728,362.251c11.295,3.668,22.756,5.412,34.037,5.412
		c46.539,0,89.926-29.69,105.069-76.29l15.939-49.057c18.811-57.893-12.986-120.293-70.878-139.102
		c-57.891-18.809-120.291,12.986-139.1,70.877l-15.939,49.055c-9.111,28.043-6.758,57.957,6.627,84.23
		C557.866,333.653,580.685,353.141,608.728,362.251z"/>
	<path fill="#BA4C20" d="M499.999,406.69l-39.098,248.275l39.098,216.013c17.004,0,34.006,4.18,49.504,12.539
		c24.414,13.17,50.918,19.729,77.385,19.727c28.777-0.002,57.51-7.762,83.412-23.221c49.722-29.674,79.407-81.961,79.407-139.865
		v-43.771c0-77.574-30.26-150.451-85.21-205.209C649.79,436.661,577.237,406.757,499.999,406.69z"/>
</g>
<path fill="#803416" d="M498.978,406.681c-159.18,0.551-288.684,131.779-288.684,292.531v40.944
	c0,57.906,29.684,110.191,79.406,139.865c49.719,29.674,109.833,30.982,160.795,3.494c15.5-8.357,32.502-12.539,49.504-12.539
	V406.69C499.657,406.69,499.317,406.679,498.978,406.681z"/>
</svg>
