<?xml version="1.0" encoding="utf-8"?>
<!-- Generator: Adobe Illustrator 16.0.0, SVG Export Plug-In . SVG Version: 6.00 Build 0)  -->
<!DOCTYPE svg PUBLIC "-//W3C//DTD SVG 1.1//EN" "http://www.w3.org/Graphics/SVG/1.1/DTD/svg11.dtd">
<svg version="1.1" id="Capa_1" xmlns="http://www.w3.org/2000/svg" xmlns:xlink="http://www.w3.org/1999/xlink" x="0px" y="0px"
	 width="1500px" height="1000px" viewBox="0 0 1500 1000" enable-background="new 0 0 1500 1000" xml:space="preserve">
<g id="Capa_3">
	<path fill="#F19E22" d="M1500,232.057c0,0-249.5,250.337-749.5,250.337S0,733.064,0,733.064V232.057H1500z"/>
</g>
<g id="Capa_2">
	<g>
		<path fill="#785546" d="M690.684,772.612c44.655-7.443,100.519-31.694,125.405-43.229c7.724-3.579,12.238-11.688,11.278-20.145
			c-2.826-24.904-8.132-81.266-8.159-153.564c-0.029-70.997-57.53-129.089-128.524-129.087l0,0l0,0
			c-70.996,0-128.498,58.094-128.523,129.089c-0.028,72.298-5.334,128.657-8.16,153.563c-0.96,8.458,3.555,16.564,11.279,20.145
			C590.166,740.917,646.024,765.169,690.684,772.612z"/>
		<path fill="#64463C" d="M641.25,555.11v-49.433c0-39.194,28.541-71.642,65.954-77.912c-5.422-0.698-10.91-1.18-16.521-1.18
			c-70.98,0-128.522,57.542-128.522,128.523c0,72.648-5.339,129.283-8.17,154.21c-0.959,8.441,3.577,16.489,11.287,20.063
			c24.887,11.534,80.75,35.787,125.406,43.229V584.77L641.25,555.11z"/>
		<path fill="#E6AF78" d="M842.356,813.846l-85.848-42.924c-10.049-5.022-16.396-15.294-16.396-26.527v-31.102h-98.865v31.102
			c0,11.233-6.347,21.505-16.396,26.527l-85.846,42.924c-10.049,5.023-16.396,15.293-16.396,26.527v40.987
			c0,5.46,4.427,9.887,9.888,9.887v98.864c0,5.46,4.426,9.888,9.887,9.888h306.479v-108.75c5.462,0,9.889-4.428,9.889-9.888v-40.987
			C858.751,829.141,852.404,818.869,842.356,813.846z"/>
		<g>
			<path fill="#D29B6E" d="M532.499,881.361v29.66h19.772c5.46,0,9.887,4.426,9.887,9.887v79.091h29.659V881.361H532.499z"/>
			<path fill="#D29B6E" d="M641.25,742.498c14.552,6.313,30.404,10.015,47.034,10.317l2.398,0.021
				c17.512,0,34.204-3.545,49.433-9.914v-29.631H641.25V742.498z"/>
		</g>
		<path fill="#F0C087" d="M648.609,539.29c-4.155-2.097-8.688-0.795-12.146,2.319c-14.986,13.5-34.76,43.159-54.532,43.159l0,0
			c-10.921,0-19.771,8.854-19.771,19.772c0,10.921,8.854,19.772,19.771,19.772h0.177c1.849,58.31,47.883,107.658,106.539,108.731
			c60.992,1.116,110.786-47.992,110.786-108.731C799.433,557.54,716.596,573.604,648.609,539.29z"/>
		<path fill="#E6AF78" d="M641.25,624.315V538.88c-1.704,0.555-3.349,1.436-4.786,2.729c-14.986,13.5-34.76,43.159-54.532,43.159
			l0,0c-10.921,0-19.771,8.854-19.771,19.772c0,10.921,8.854,19.773,19.771,19.773h0.177
			c1.849,58.309,47.883,107.657,106.539,108.73c11.049,0.203,21.712-1.289,31.797-4.155
			C674.766,716.001,641.25,674.116,641.25,624.315z"/>
		<path fill="#D29B6E" d="M690.683,683.634c-13.651,0-26.416-4.312-35.936-12.137c-4.219-3.466-4.827-9.697-1.361-13.917
			c3.455-4.2,9.692-4.833,13.912-1.356c11.817,9.703,34.95,9.703,46.769,0c4.219-3.476,10.455-2.844,13.911,1.356
			c3.467,4.219,2.858,10.451-1.36,13.917C717.099,679.322,704.335,683.634,690.683,683.634z"/>
		<path fill="#553732" d="M740.114,624.315c-5.464,0-9.888-4.429-9.888-9.889v-9.886c0-5.46,4.423-9.887,9.888-9.887
			s9.887,4.427,9.887,9.887v9.886C750,619.888,745.58,624.315,740.114,624.315z"/>
		<path fill="#B4E66E" d="M847.82,816.577l-61.146-30.573c-10.482,43.347-49.426,75.584-95.993,75.584s-85.511-32.238-95.992-75.584
			l-61.146,30.573c-6.698,3.351-10.93,10.197-10.93,17.687v47.099c0,5.46,4.425,9.888,9.887,9.888h49.432V1000H809.32V891.25h49.434
			v-56.985C858.751,826.774,854.521,819.928,847.82,816.577z"/>
		<g>
			<path fill="#A0D755" d="M786.674,786.005c-10.481,43.347-49.426,75.584-95.993,75.584c-46.566,0-85.51-32.238-95.991-75.584
				l-18.073,9.036c14.086,49.794,59.761,86.32,114.064,86.32c54.305,0,99.979-36.526,114.066-86.32L786.674,786.005z"/>
			<path fill="#A0D755" d="M858.751,840.373v40.988c0,5.46-4.427,9.888-9.887,9.888h-49.434v-11.583
				c0-5.243,2.083-10.273,5.791-13.981l45.501-45.5C855.764,825.585,858.751,832.734,858.751,840.373z"/>
		</g>
		<path fill="#553732" d="M641.25,624.315c-5.464,0-9.887-4.429-9.887-9.889v-9.886c0-5.46,4.422-9.887,9.887-9.887
			s9.888,4.427,9.888,9.887v9.886C651.136,619.888,646.715,624.315,641.25,624.315z"/>
		<path fill="#D7B48D" d="M898.296,861.589h-98.863l-18.16,127.125c-0.853,5.956,3.771,11.285,9.788,11.285H906.67
			c6.018,0,10.639-5.329,9.787-11.285L898.296,861.589z"/>
		<path fill="#C09B78" d="M898.296,861.589h-98.863l-3.734,26.143c9.687,19.618,29.848,33.177,53.167,33.177
			c23.318,0,43.479-13.561,53.167-33.177L898.296,861.589z"/>
		<path fill="#553732" d="M809.319,713.293l-23.449-23.449c-3.588-3.588-9.27-3.894-13.209-0.698
			c-12.258,9.937-37.696,31.872-52.32,53.808c0,0,19.772,49.433,59.318,59.319L809.319,713.293z"/>
		<path fill="#64463C" d="M785.868,689.844c-2.244-2.246-5.298-3.046-8.244-2.666c-8.039,14.712-35.391,72.242,1.709,114.988
			c0.112,0.028,0.214,0.076,0.325,0.104l29.661-88.978L785.868,689.844z"/>
		<path fill="#553732" d="M888.409,713.293l23.449-23.449c3.588-3.588,9.269-3.894,13.209-0.698
			c12.258,9.937,37.694,31.872,52.32,53.808c0,0-19.772,49.433-59.318,59.319L888.409,713.293z"/>
		<path fill="#64463C" d="M911.858,689.844c2.245-2.246,5.298-3.046,8.244-2.666c8.039,14.712,35.392,72.242-1.709,114.988
			c-0.111,0.028-0.213,0.076-0.323,0.104l-29.661-88.978L911.858,689.844z"/>
		<path fill="#EBC9A0" d="M848.864,881.361L848.864,881.361c-43.682,0-79.091-35.41-79.091-79.092V772.61
			c0-43.682,35.409-79.091,79.091-79.091l0,0c43.681,0,79.092,35.409,79.092,79.091v29.659
			C927.956,845.951,892.545,881.361,848.864,881.361z"/>
		<path fill="#D7B48D" d="M809.319,802.271v-29.66c0-36.839,25.226-67.706,59.319-76.499c-6.331-1.632-12.933-2.593-19.772-2.593
			c-43.683,0-79.092,35.41-79.092,79.092v29.66c0,43.681,35.409,79.091,79.092,79.091c6.841,0,13.441-0.96,19.772-2.594
			C834.543,869.979,809.319,839.111,809.319,802.271z"/>
		<circle fill="#F5DCB4" cx="848.869" cy="861.585" r="39.545"/>
		<g>
			<circle fill="#FAEBC8" cx="819.201" cy="851.707" r="29.659"/>
			<circle fill="#FAEBC8" cx="878.525" cy="851.707" r="29.659"/>
		</g>
		<g>
			<circle fill="#553732" cx="848.869" cy="831.929" r="19.773"/>
			<path fill="#553732" d="M809.319,802.271c-5.464,0-9.888-4.428-9.888-9.888v-9.888c0-5.459,4.422-9.887,9.888-9.887
				s9.887,4.428,9.887,9.887v9.888C819.205,797.844,814.784,802.271,809.319,802.271z"/>
			<path fill="#553732" d="M888.409,802.271c-5.463,0-9.888-4.428-9.888-9.888v-9.888c0-5.459,4.424-9.887,9.888-9.887
				c5.466,0,9.887,4.428,9.887,9.887v9.888C898.296,797.844,893.875,802.271,888.409,802.271z"/>
		</g>
		<path fill="#C09B78" d="M878.524,950.563c-5.466,0-9.888,4.428-9.888,9.888v0.019c0,10.913-8.846,19.758-19.759,19.758l0,0
			c-10.912,0-19.757-8.846-19.757-19.758v-0.019c0-5.46-4.423-9.888-9.887-9.888c-5.467,0-9.889,4.428-9.889,9.888V1000l0.001,0.001
			h19.744h0.027h39.52l0,0l0,0h19.771l0.002-0.001v-39.55C888.409,954.988,883.988,950.563,878.524,950.563z"/>
		<path fill="#A0D755" d="M576.141,865.684l-46.513-46.513c-4.384,3.707-7.014,9.197-7.014,15.093v47.1
			c0,5.461,4.426,9.887,9.887,9.887h49.432v-11.582C581.932,874.422,579.849,869.392,576.141,865.684z"/>
	</g>
</g>
<polygon fill="#F19E22" points="1500,232.057 1500,0 0,0 0,426.587 "/>
</svg>
