<?xml version="1.0" encoding="utf-8"?>
<!-- Generator: Adobe Illustrator 16.0.0, SVG Export Plug-In . SVG Version: 6.00 Build 0)  -->
<!DOCTYPE svg PUBLIC "-//W3C//DTD SVG 1.1//EN" "http://www.w3.org/Graphics/SVG/1.1/DTD/svg11.dtd">
<svg version="1.1" xmlns="http://www.w3.org/2000/svg" xmlns:xlink="http://www.w3.org/1999/xlink" x="0px" y="0px" width="1500px"
	 height="1000px" viewBox="0 0 1500 1000" enable-background="new 0 0 1500 1000" xml:space="preserve">
<g id="Capa_1">
	<g id="Capa_3">
		<path fill="#683B1A" d="M279.359,785.292c-15.938,0-28.859,12.922-28.859,28.859c0,15.937,12.922,28.858,28.859,28.858h144.298
			l-88.078-57.719L279.359,785.292L279.359,785.292z"/>
		<path fill="#D1D8DC" d="M623.179,786.011l12.113-96.917h-76.959v134.678c0,10.627,8.613,19.239,19.24,19.239h38.479h33.101
			c14.758,0,24.291-16.094,16.843-28.834C657.127,799.004,641.464,788.287,623.179,786.011z"/>
		<path fill="#AA7135" d="M755.229,458.219h-19.069c-15.308,0-29.99-6.082-40.814-16.906l-23.907-23.906
			c-10.824-10.824-25.505-16.904-40.813-16.904h-67.623c-15.307,0-29.988,6.081-40.813,16.904l-2.335,2.335V577.5
			c0,0-112.74,64.972-147.124,87.995c-2.166,1.36-4.209,2.831-6.252,4.352c-27.65,20.595-44.161,55.354-37.573,93.81
			c6.778,39.561,39.167,71.704,78.795,78.072c47.273,7.596,89.465-19.298,105.396-59.465c3.823-9.638,12.787-16.219,23.157-16.219
			h41.318c6.303,0,12.749-0.628,19.321-1.953c38.137-7.688,68.84-39.059,75.42-77.398c6.559-38.209-9.709-72.717-37.022-93.357
			V554.42h57.718c21.165,0,47.391-14.85,58.28-32.998l20.438-34.064C779.419,474.532,770.183,458.219,755.229,458.219z"/>
		<g>
			<circle fill="#010101" cx="654.536" cy="458.175" r="14.429"/>
			<path fill="#010101" d="M521.839,417.756l-45.037,45.037c-9.391,9.391-14.666,22.128-14.666,35.408v15.6
				c0,27.912,18.873,53.499,46.285,58.759c36.892,7.077,69.152-21.006,69.152-56.622V400.5h-14.074
				C547.874,400.5,532.887,406.707,521.839,417.756z"/>
		</g>
		<path fill="#D1D8DC" d="M519.568,843.011h-90.996c0-31.878,25.841-57.719,57.719-57.719c21.755,0,40.698,12.037,50.535,29.812
			C543.757,827.629,533.883,843.011,519.568,843.011z"/>
		<path fill="#9B6534" d="M462.136,650.614c-6.591,0-13.021,0.677-19.239,1.94c14.199,2.885,27.057,9.15,38.235,17.534
			c-0.095-0.079-0.184-0.161-0.282-0.233h0.532c0,0.154,0.037,0.296,0.041,0.445c23.224,17.56,38.433,45.151,38.433,76.514
			c0,14.971-3.722,28.97-9.816,41.603c0.994-2.065,2.207-4.009,3.063-6.153c3.823-9.639,12.785-16.219,23.157-16.219h20.143
			c1.258-6.214,1.936-12.643,1.936-19.229C558.333,693.683,515.266,650.614,462.136,650.614z"/>
		<path fill="#D1D8DC" d="M755.229,458.219h-19.069c-15.308,0-29.992-6.082-40.814-16.903l-23.907-23.909
			c-0.023-0.026-0.062-0.042-0.084-0.069c13.34,16.515,21.657,37.243,21.657,60.122c0,31.617-15.457,59.425-39.006,76.959h39.006
			c21.166,0,47.392-14.849,58.279-32.999l20.436-34.063C779.421,474.532,770.186,458.219,755.229,458.219z"/>
		<path fill="#AA7135" d="M481.38,669.854c0,0.165,0.047,0.315,0.047,0.479c-0.068-0.057-0.137-0.12-0.211-0.174
			c-0.123-0.104-0.24-0.212-0.367-0.307L481.38,669.854L481.38,669.854z"/>
		<path fill="#010101" d="M755.229,458.219h-19.069c-0.677,0-1.32-0.175-1.991-0.196c-1.667,3.519-2.677,7.406-2.677,11.561
			c0,14.975,12.139,27.116,27.116,27.116c2.945,0,5.73-0.59,8.39-1.462l4.729-7.881
			C779.421,474.532,770.186,458.219,755.229,458.219z"/>
	</g>
	<g id="Capa_2">
		<g>
			<path fill="#66757F" d="M1188.96,365.504c-4.462,4.473-11.675,4.473-16.136,0l-16.139-16.137c-4.473-4.462-4.473-11.686,0-16.136
				l32.275-32.275c4.463-4.463,11.675-4.463,16.137,0l16.139,16.137c4.473,4.451,4.473,11.674,0,16.138L1188.96,365.504z"/>
			<path fill="#66757F" d="M1017.771,194.319c-4.463,4.473-11.675,4.473-16.137,0l-16.138-16.137
				c-4.474-4.462-4.474-11.686,0-16.137l32.274-32.275c4.464-4.462,11.677-4.462,16.138,0l16.137,16.137
				c4.474,4.451,4.474,11.675,0,16.137L1017.771,194.319z"/>
		</g>
		<g>
			<path fill="#55ACEE" d="M869.409,344.641c22.823,0,125.538,11.413,125.538,11.413s11.412,102.712,11.412,125.538
				s-22.824,22.826-34.237,11.413s-45.65-68.475-45.65-68.475s-57.063-34.237-68.475-45.65
				C846.584,367.466,846.584,344.641,869.409,344.641"/>
			<path fill="#55ACEE" d="M892.229,162.481c34.237-0.444,285.313,10.968,285.313,10.968s10.545,251.076,10.979,285.313
				c0.435,34.237-31.521,45.672-44.075,0.013c-12.554-45.662-58.204-194.025-58.204-194.025s-159.262-50.398-194.07-58.228
				C846.578,196.273,857.99,162.926,892.229,162.481"/>
		</g>
		<path fill="#CCD6DD" d="M1154.723,127.803c22.825-22.825,79.89-34.238,91.301-22.825c11.412,11.413,0,68.475-22.824,91.3
			c-22.825,22.825-216.839,205.426-216.839,205.426s-74.183,51.355-91.3,34.238c-17.119-17.119,34.236-91.301,34.236-91.301
			S1131.896,150.627,1154.723,127.803"/>
		<g>
			<path fill="#66757F" d="M1006.359,344.641c0,0,5.707,5.707-45.65,57.063c-51.355,51.355-57.063,45.649-57.063,45.649
				s-5.707-5.707,45.649-57.063C1000.653,338.935,1006.359,344.641,1006.359,344.641"/>
			<path fill="#66757F" d="M1177.548,139.215c18.91,0,34.237,15.327,34.237,34.237h9.188c1.301-3.595,2.227-7.361,2.227-11.413
				c0-18.91-15.327-34.237-34.238-34.237c-4.051,0-7.829,0.925-11.412,2.226L1177.548,139.215L1177.548,139.215z"/>
		</g>
	</g>
	<g id="Capa_4">
		<path fill="#F19E22" d="M0,697.581L155.621,843.5H0c0,0,581.167,0,750,0c150.167,0,153.458,156.5,153.458,156.5H0"/>
	</g>
</g>
<g id="Capa_2_1_">
</g>
</svg>
