<?xml version="1.0" encoding="utf-8"?>
<!-- Generator: Adobe Illustrator 16.0.0, SVG Export Plug-In . SVG Version: 6.00 Build 0)  -->
<!DOCTYPE svg PUBLIC "-//W3C//DTD SVG 1.1//EN" "http://www.w3.org/Graphics/SVG/1.1/DTD/svg11.dtd">
<svg version="1.1" id="Capa_1" xmlns="http://www.w3.org/2000/svg" xmlns:xlink="http://www.w3.org/1999/xlink" x="0px" y="0px"
	 width="536.071px" height="536.07px" viewBox="0 0 536.071 536.07" enable-background="new 0 0 536.071 536.07"
	 xml:space="preserve">
<g>
	<path fill="#BA4C20" d="M147.128,91.076c0-37.95,30.766-68.716,68.721-68.716c37.95,0,68.719,30.766,68.719,68.716
		c0,37.95-30.769,68.715-68.719,68.715C177.894,159.792,147.128,129.026,147.128,91.076z M248.873,206.607
		c0.689-14.963,5.84-28.812,14.127-40.261c-5.816-1.218-11.827-1.865-17.995-1.865h-58.304c-6.15,0-12.153,0.642-17.939,1.845
		c8.819,12.232,14.094,27.171,14.18,43.343c10.72-5.896,23.02-9.253,36.085-9.253C229.625,200.416,239.714,202.624,248.873,206.607z
		 M260.505,212.775c19.96,12.517,33.957,33.688,36.517,58.274c8.133,3.801,17.172,5.994,26.746,5.994
		c34.969,0,63.311-28.346,63.311-63.313c0-34.971-28.342-63.311-63.311-63.311C289.12,150.42,261.031,178.257,260.505,212.775z
		 M219.026,342.411c34.962,0,63.307-28.354,63.307-63.312c0-34.961-28.345-63.311-63.307-63.311
		c-34.965,0-63.322,28.348-63.322,63.311C155.705,314.057,184.061,342.411,219.026,342.411z M245.882,346.721h-53.717
		c-44.697,0-81.069,36.368-81.069,81.071v65.703l0.171,1.029l4.522,1.405c42.658,13.323,79.718,17.779,110.224,17.779
		c59.571,0,94.114-16.987,96.241-18.074l4.232-2.141h0.447v-65.703C326.936,383.089,290.584,346.721,245.882,346.721z
		 M350.637,281.364h-53.313c-0.58,21.331-9.684,40.542-24.082,54.35c39.732,11.815,68.803,48.657,68.803,92.178v20.245
		c52.629-1.938,82.963-16.846,84.961-17.851l4.232-2.152h0.449v-65.715C431.694,317.729,395.325,281.364,350.637,281.364z
		 M364.889,149.069c19.961,12.519,33.957,33.691,36.512,58.277c8.133,3.801,17.17,5.99,26.746,5.99
		c34.975,0,63.314-28.342,63.314-63.304c0-34.972-28.342-63.311-63.314-63.311C393.502,86.717,365.417,114.56,364.889,149.069z
		 M455.01,217.658h-53.303c-0.58,21.332-9.682,40.542-24.08,54.349c39.73,11.812,68.801,48.658,68.801,92.179v20.246
		c52.623-1.935,82.963-16.841,84.961-17.853l4.227-2.146h0.455v-65.723C536.077,254.024,499.708,217.658,455.01,217.658z
		 M107.937,277.044c12.386,0,23.903-3.618,33.67-9.777c3.106-20.241,13.958-37.932,29.454-49.975
		c0.065-1.188,0.174-2.361,0.174-3.561c0-34.971-28.351-63.311-63.298-63.311c-34.977,0-63.316,28.339-63.316,63.311
		C44.621,248.704,72.959,277.044,107.937,277.044z M164.795,335.714c-14.331-13.741-23.404-32.847-24.072-54.055
		c-1.971-0.147-3.928-0.296-5.943-0.296H81.069C36.366,281.364,0,317.729,0,362.425v65.709l0.166,1.023l4.528,1.412
		c34.214,10.698,64.761,15.615,91.292,17.152v-19.837C95.991,384.371,125.054,347.523,164.795,335.714z"/>
</g>
</svg>
