<?xml version="1.0" encoding="utf-8"?>
<!-- Generator: Adobe Illustrator 16.0.0, SVG Export Plug-In . SVG Version: 6.00 Build 0)  -->
<!DOCTYPE svg PUBLIC "-//W3C//DTD SVG 1.1//EN" "http://www.w3.org/Graphics/SVG/1.1/DTD/svg11.dtd">
<svg version="1.1" id="Capa_1" xmlns="http://www.w3.org/2000/svg" xmlns:xlink="http://www.w3.org/1999/xlink" x="0px" y="0px"
	 width="612px" height="792px" viewBox="0 0 612 792" enable-background="new 0 0 612 792" xml:space="preserve">
<path fill="#803416" d="M559.498,168.752c-70.001-70.002-183.497-70.002-253.499,0c-70.002-70.002-183.498-70.002-253.499,0
	C-17.5,238.754-17.5,352.25,52.5,422.251L306,675.751l253.499-253.499C629.501,352.25,629.501,238.753,559.498,168.752z"/>
<path fill="#BA4C20" d="M559.498,168.752c-70.001-70.002-183.497-70.002-253.499,0c0,87.581,0,506.999,0,506.999l253.499-253.499
	C629.501,352.25,629.501,238.753,559.498,168.752z"/>
<polygon fill="#F2F6FC" points="339.274,475.863 272.724,342.764 250.531,387.152 150.831,387.152 150.831,351.292 228.369,351.292 
	272.724,262.58 339.274,395.679 361.468,351.292 461.168,351.292 461.168,387.152 383.63,387.152 "/>
<polygon fill="#E9EDF5" points="339.274,475.863 306,409.314 306,329.13 339.274,395.679 361.468,351.292 461.168,351.292 
	461.168,387.152 383.63,387.152 "/>
</svg>
