<?xml version="1.0" encoding="utf-8"?>
<!-- Generator: Adobe Illustrator 16.0.0, SVG Export Plug-In . SVG Version: 6.00 Build 0)  -->
<!DOCTYPE svg PUBLIC "-//W3C//DTD SVG 1.1//EN" "http://www.w3.org/Graphics/SVG/1.1/DTD/svg11.dtd">
<svg version="1.1" id="Capa_1" xmlns="http://www.w3.org/2000/svg" xmlns:xlink="http://www.w3.org/1999/xlink" x="0px" y="0px"
	 width="1500px" height="1000px" viewBox="0 0 1500 1000" enable-background="new 0 0 1500 1000" xml:space="preserve">
<g>
	<g>
		<path fill="#BA4C20" d="M734.275,357.111c-12.621-19.152-47.463-56.604-103.557-111.32
			c-24.656-24.049-57.201-37.291-91.652-37.291c-0.018,0-0.039,0-0.055,0c-34.471,0.016-67.027,13.287-91.674,37.371
			c-55.809,54.537-90.535,91.969-103.223,111.26c-13.166,20.033-28.004,48.203-25.84,88.563
			c1.707,31.889,15.207,61.832,38.016,84.313c23.201,22.869,53.52,35.463,85.371,35.463c36.945,0,68.227-22.064,87.961-40.574
			c5.273-4.947,13.223-4.885,18.486,0.143c27.695,26.451,58.348,40.432,88.643,40.432c31.848,0,62.166-12.594,85.369-35.463
			c22.807-22.482,36.307-52.424,38.014-84.316C762.316,404.781,746.422,375.545,734.275,357.111z M721.127,443.604
			c-2.443,45.656-40.293,82.801-84.375,82.801c-25.334,0-47.516-16.105-61.664-29.617c-10.16-9.701-23.242-14.559-36.324-14.559
			c-12.891,0-25.783,4.721-35.861,14.17c-14.594,13.688-37.064,30.004-61.24,30.004c-44.084,0-81.938-37.143-84.381-82.803
			c-1.23-22.932,4.594-42.377,19.473-65.012c6.273-9.537,27.332-35.834,97.885-104.783c35.494-34.684,93.275-34.707,128.805-0.053
			c70.926,69.184,91.979,95.389,98.215,104.852C716.531,401.176,722.354,420.615,721.127,443.604z"/>
	</g>
</g>
<g>
	<g>
		<g>
			<path fill="#BA4C20" d="M463.885,339.621c-41.371,42.098-52.17,56.896-54.498,60.438c-10.328,15.711-13.877,26.945-13.102,41.451
				c1.342,25.031,21.51,45.59,44.959,45.832c0.068,0.002,0.137,0.002,0.205,0.002c10.693,0,19.416-8.613,19.527-19.33
				c0.111-10.787-8.543-19.621-19.328-19.732c-2.066-0.021-6.076-3.689-6.354-8.859c-0.205-3.799-0.381-7.08,6.721-17.883
				c0.336-0.504,8.721-12.805,49.73-54.537c7.561-7.695,7.453-20.061-0.24-27.621C483.811,331.82,471.445,331.928,463.885,339.621z"
				/>
			<path fill="#BA4C20" d="M669.037,400.092c-3.195-4.846-18.49-23.467-53.514-59.262c-7.545-7.711-19.912-7.844-27.621-0.301
				c-7.709,7.545-7.844,19.91-0.301,27.621c36.771,37.584,48.039,52.42,48.969,53.668c6.92,10.553,6.746,13.826,6.543,17.611
				c-0.273,5.113-4.346,8.852-6.361,8.852c-10.787,0-19.531,8.744-19.531,19.531s8.744,19.531,19.531,19.531
				c23.662,0,44.016-20.557,45.369-45.83C682.889,427.158,679.221,415.547,669.037,400.092z"/>
		</g>
	</g>
</g>
<g>
	<g>
		<path fill="#BA4C20" d="M451.439,0c-46.059,0-83.531,47.293-83.531,105.426c0,58.129,37.473,105.422,83.531,105.422
			c46.053,0,83.52-47.293,83.521-105.424C534.961,47.293,497.494,0,451.439,0z M451.439,171.783
			c-24.105,0-44.469-30.389-44.469-66.359s20.365-66.361,44.469-66.361c24.1,0,44.457,30.391,44.459,66.361
			C495.898,141.393,475.539,171.783,451.439,171.783z"/>
	</g>
</g>
<g>
	<g>
		<path fill="#BA4C20" d="M626.975,0c-46.059,0-83.529,47.293-83.531,105.426c0,58.129,37.473,105.422,83.531,105.422
			c46.055,0,83.521-47.293,83.521-105.424S673.029,0,626.975,0z M626.975,171.783c-24.105,0-44.469-30.389-44.469-66.359
			s20.365-66.361,44.469-66.361c24.1,0,44.459,30.391,44.459,66.361C671.434,141.393,651.074,171.783,626.975,171.783z"/>
	</g>
</g>
<g>
	<g>
		<path fill="#BA4C20" d="M774.338,141.965c-19.582-3.857-39.352,2.061-55.676,16.658c-14.797,13.232-25.322,32.594-29.639,54.518
			c-4.314,21.906-1.91,43.803,6.768,61.652c9.574,19.695,25.631,32.664,45.205,36.518c3.902,0.77,7.809,1.148,11.697,1.148
			c15.611,0,30.889-6.121,43.963-17.805c14.809-13.232,25.338-32.582,29.65-54.486C835.656,192.68,812.83,149.543,774.338,141.965z
			 M787.977,232.621c-2.68,13.617-8.842,25.301-17.352,32.904c-4.939,4.412-12.785,9.289-22.084,7.457
			c-9.318-1.834-14.725-9.316-17.619-15.27c-4.986-10.256-6.256-23.404-3.574-37.027c2.686-13.641,8.848-25.34,17.352-32.943
			c4.201-3.756,10.508-7.848,18.041-7.848c1.314,0,2.668,0.125,4.047,0.395h0.002C783.506,183.58,793.01,207.057,787.977,232.621z"
			/>
	</g>
</g>
<g>
	<g>
		<path fill="#BA4C20" d="M389.379,213.143c-4.316-21.924-14.842-41.287-29.639-54.518c-16.324-14.598-36.096-20.512-55.676-16.658
			h0.002c-38.49,7.578-61.316,50.715-51.967,98.203c4.313,21.904,14.842,41.254,29.65,54.486
			c13.076,11.684,28.35,17.805,43.961,17.803c3.887,0,7.797-0.381,11.695-1.146c19.576-3.854,35.631-16.824,45.205-36.518
			C391.289,256.945,393.693,235.049,389.379,213.143z M347.48,257.715c-2.893,5.953-8.299,13.436-17.619,15.27
			c-9.301,1.834-17.145-3.045-22.084-7.457c-8.508-7.604-14.672-19.289-17.352-32.904c-5.033-25.564,4.471-49.041,21.188-52.332
			c1.385-0.273,2.736-0.396,4.051-0.396c7.533,0,13.84,4.092,18.039,7.85c8.504,7.604,14.666,19.303,17.352,32.943
			C353.736,234.311,352.467,247.459,347.48,257.715z"/>
	</g>
</g>
<g>
	<g>
		<path fill="#BA4C20" d="M1155.873,791.643c-12.621-19.15-47.463-56.604-103.557-111.318
			c-24.656-24.051-57.201-37.293-91.652-37.293c-0.016,0-0.037,0-0.055,0c-34.471,0.016-67.029,13.287-91.674,37.371
			c-55.809,54.535-90.537,91.969-103.225,111.26c-13.168,20.033-28.004,48.203-25.842,88.563
			c1.707,31.889,15.207,61.832,38.016,84.313c23.201,22.869,53.52,35.463,85.371,35.463c36.945,0,68.227-22.064,87.963-40.576
			c5.188-4.865,13.307-4.801,18.486,0.145C997.4,986.02,1028.053,1000,1058.346,1000c31.85,0,62.166-12.594,85.373-35.463
			c22.807-22.48,36.309-52.424,38.016-84.316C1183.916,839.314,1168.02,810.078,1155.873,791.643z M1142.723,878.135
			c-2.445,45.658-40.297,82.803-84.377,82.803c-25.33,0-47.514-16.107-61.662-29.619c-10.16-9.701-23.242-14.559-36.324-14.559
			c-12.893,0-25.783,4.719-35.863,14.174c-14.596,13.688-37.066,30.004-61.24,30.004c-44.084,0-81.938-37.145-84.381-82.805
			c-1.23-22.932,4.596-42.377,19.473-65.012c6.275-9.539,27.334-35.838,97.887-104.783c35.494-34.684,93.275-34.709,128.803-0.053
			c70.926,69.184,91.979,95.389,98.215,104.852C1138.127,835.709,1143.949,855.148,1142.723,878.135z"/>
	</g>
</g>
<g>
	<g>
		<g>
			<path fill="#BA4C20" d="M1090.635,834.631c-3.188-4.84-18.477-23.453-53.518-59.268c-7.547-7.709-19.912-7.846-27.621-0.301
				c-7.711,7.543-7.846,19.908-0.301,27.619c36.785,37.596,48.043,52.424,48.967,53.666c6.922,10.553,6.748,13.828,6.545,17.613
				c-0.273,5.113-4.346,8.852-6.361,8.852c-10.787,0-19.531,8.744-19.531,19.531s8.744,19.531,19.531,19.531
				c23.664,0,44.016-20.557,45.369-45.83C1104.48,861.689,1100.813,850.078,1090.635,834.631z"/>
			<path fill="#BA4C20" d="M885.48,774.152c-41.346,42.072-52.16,56.887-54.498,60.438c-10.328,15.711-13.877,26.945-13.102,41.451
				c1.34,25.031,21.508,45.59,44.957,45.832c0.068,0.002,0.137,0.002,0.205,0.002c10.693,0,19.416-8.613,19.529-19.33
				c0.111-10.787-8.543-19.621-19.328-19.732c-2.066-0.021-6.076-3.689-6.354-8.859c-0.205-3.797-0.381-7.08,6.717-17.877
				c0.336-0.504,8.721-12.807,49.734-54.543c7.561-7.695,7.453-20.061-0.24-27.621C905.406,766.352,893.041,766.459,885.48,774.152z
				"/>
		</g>
	</g>
</g>
<g>
	<g>
		<path fill="#BA4C20" d="M873.033,434.531c-46.061,0-83.531,47.293-83.531,105.424s37.473,105.424,83.531,105.424
			c46.055,0,83.521-47.293,83.521-105.424S919.088,434.531,873.033,434.531z M873.033,606.316
			c-24.105,0-44.469-30.391-44.469-66.361s20.365-66.361,44.469-66.361c24.1,0,44.459,30.391,44.459,66.361
			S897.133,606.316,873.033,606.316z"/>
	</g>
</g>
<g>
	<g>
		<path fill="#BA4C20" d="M1048.57,434.531c-46.059,0-83.531,47.293-83.531,105.424s37.473,105.424,83.531,105.424
			c46.053,0,83.521-47.293,83.521-105.424S1094.625,434.531,1048.57,434.531z M1048.57,606.316
			c-24.105,0-44.469-30.391-44.469-66.361s20.365-66.361,44.469-66.361c24.098,0,44.459,30.391,44.459,66.361
			S1072.67,606.316,1048.57,606.316z"/>
	</g>
</g>
<g>
	<g>
		<path fill="#BA4C20" d="M1195.934,576.496c-19.584-3.855-39.352,2.061-55.676,16.658c-14.797,13.232-25.322,32.594-29.639,54.518
			c-4.314,21.906-1.91,43.803,6.768,61.652c9.574,19.695,25.629,32.664,45.205,36.518c3.9,0.77,7.807,1.148,11.697,1.148
			c15.609-0.002,30.889-6.121,43.961-17.805c14.807-13.23,25.338-32.58,29.65-54.484
			C1257.252,627.211,1234.424,584.074,1195.934,576.496z M1209.574,667.154c-2.68,13.613-8.844,25.299-17.352,32.902
			c-4.939,4.414-12.781,9.291-22.086,7.457c-9.32-1.834-14.725-9.316-17.619-15.27c-4.986-10.256-6.256-23.404-3.574-37.027
			c2.686-13.641,8.848-25.34,17.352-32.943c4.201-3.756,10.508-7.848,18.041-7.848c1.314,0,2.668,0.125,4.051,0.396
			C1205.102,618.113,1214.607,641.59,1209.574,667.154z"/>
	</g>
</g>
<g>
	<g>
		<path fill="#BA4C20" d="M810.977,647.674c-4.316-21.924-14.842-41.287-29.639-54.518c-16.324-14.598-36.102-20.514-55.676-16.658
			c-38.49,7.578-61.318,50.717-51.967,98.205c4.313,21.902,14.842,41.252,29.65,54.484c13.072,11.682,28.35,17.803,43.959,17.803
			c3.889,0,7.797-0.379,11.697-1.146c19.576-3.854,35.633-16.822,45.207-36.518C812.887,691.477,815.289,669.58,810.977,647.674z
			 M769.076,692.244c-2.895,5.953-8.301,13.436-17.621,15.27c-9.311,1.832-17.146-3.045-22.084-7.457
			c-8.508-7.602-14.67-19.287-17.352-32.902c-5.033-25.564,4.471-49.041,21.188-52.332h0.002c1.385-0.271,2.736-0.396,4.051-0.396
			c7.531,0,13.84,4.092,18.039,7.848c8.504,7.604,14.666,19.303,17.352,32.943C775.332,668.84,774.063,681.988,769.076,692.244z"/>
	</g>
</g>
</svg>
