<?xml version="1.0" encoding="iso-8859-1"?>
<!-- Generator: Adobe Illustrator 19.0.0, SVG Export Plug-In . SVG Version: 6.00 Build 0)  -->
<svg version="1.1" id="Capa_1" xmlns="http://www.w3.org/2000/svg" xmlns:xlink="http://www.w3.org/1999/xlink" x="0px" y="0px"
	 viewBox="0 0 512 512" style="enable-background:new 0 0 512 512;" xml:space="preserve">
<rect x="148.298" y="388.872" style="fill:#F0A479;" width="127.977" height="93.745"/>
<path style="fill:#4BA7E0;" d="M7.5,359.014c0,5.076,0,120.688,0,127.423c0,6.627,5.373,12.001,12.001,12.001
	c3.5,0,113.171,0,120.982,0c6.627,0,12.001-5.373,12.001-12.001v-67.66v-59.763L7.5,359.014L7.5,359.014z"/>
<path style="fill:#4B87DD;" d="M27.502,486.438v-33.947v-93.476H7.5c0,5.076,0,120.688,0,127.423
	c0,6.627,5.373,12.001,12.001,12.001h20.001C32.875,498.438,27.502,493.065,27.502,486.438z"/>
<path style="fill:#EA976E;" d="M176.108,402.722c-29.166-66.743-29.896-71.035-38.768-79.82v-0.004
	c-0.072-0.068-9.151-9.061-9.151-9.061c-3.824-3.787-5.145-9.667-5.564-16.776c0-4.888,0-140.106,0-151.284H28.877
	c0,3.296,0,128.642,0,136.701c0,18.294,1.2,22.759-6.033,31.437C3.99,334.424,7.487,325.353,7.545,404.33H7.5v48.159
	c0,7.947,6.443,14.394,14.392,14.394c7.951,0,14.397-6.445,14.397-14.394v26.206c0,7.957,6.449,14.407,14.408,14.407
	c7.957,0,14.407-6.449,14.407-14.407v10.892c0,7.957,6.449,14.409,14.407,14.409c7.958,0,14.409-6.451,14.409-14.409v-20.038
	l0.006,9.181c0.006,7.943,6.453,14.38,14.397,14.374c7.945-0.006,14.339-6.451,14.333-14.396v-86.25c0-11.882,5.8-4.84,6.661-3.73
	l20.663,27.127C161.872,432.506,183.123,417.942,176.108,402.722z"/>
<path style="fill:#DB835D;" d="M27.061,452.491v-48.159h0.045c-0.059-79.77-3.187-70.307,15.298-90.415
	c0.039-0.047,6.039-6.127,6.033-15.132v-16.306c0-0.01,0-0.033,0-0.023c0,2.846,0-130.195,0-136.678h-19.56
	c0,3.296,0,128.642,0,136.701c0,18.294,1.2,22.759-6.033,31.437C3.99,334.425,7.487,325.354,7.545,404.331H7.5v48.159
	c0,12.569,15.007,19.048,24.173,10.539C28.843,460.401,27.061,456.658,27.061,452.491z"/>
<path style="fill:#149334;" d="M25.06,7C18.433,7,13.06,12.374,13.06,19.001c0,79.333,0,40.651,0,120.982
	c0,6.627,5.373,12.001,12.001,12.001c13.356,0,107.192,0,118.904,0V7C137.347,7,31.855,7,25.06,7z"/>
<path style="fill:#0E7F26;" d="M33.061,139.982c0-5.194,0-115.963,0-120.982c0-6.627,5.373-12.001,12.001-12.001H25.06
	C18.433,6.999,13.06,12.373,13.06,19c0,79.333,0,40.651,0,120.982c0,6.627,5.373,12.001,12.001,12.001h20.001
	C38.434,151.983,33.061,146.609,33.061,139.982z"/>
<path style="fill:#D8825D;" d="M359.514,28.377c-7.913,0-140.403,0-146.801,0c-9.005,0.006-15.085-5.994-15.132-6.033l-9.994-9.187
	c-2.803-2.258-9.172-6.166-19.726-6.156l-60.696,0.045V7H59.007c-7.948,0-14.394,6.443-14.394,14.392
	c0,7.951,6.444,14.397,14.394,14.397H32.801c-7.957,0-14.408,6.449-14.408,14.407s6.45,14.407,14.408,14.407H21.908
	C13.952,64.603,7.5,71.052,7.5,79.01c0,7.958,6.451,14.409,14.408,14.409h20.039l-9.181,0.006
	c-7.944,0.006-14.38,6.453-14.375,14.397c0.007,7.945,6.452,14.339,14.396,14.333h98.725l-35.87,27.325
	c-16.649,11.894-2.087,33.145,13.134,26.128c66.785-29.184,71.034-29.897,79.819-38.768h0.003c0.069-0.072,9.062-9.151,9.062-9.151
	c3.787-3.824,9.668-5.145,16.776-5.564c9.19,0,143.351,0,148.54,0V28.377H359.514z"/>
<g>
	<path style="fill:#CE7657;" d="M208.435,101.912c-7.107,0.42-12.989,1.74-16.776,5.564c0,0-8.992,9.079-9.061,9.151h-0.003
		c-8.785,8.872-13.029,9.582-79.819,38.768c-4.491,2.07-8.919,1.667-12.51-0.219c-6.985,11.805,5.513,26.423,18.51,20.431
		c66.785-29.184,71.034-29.897,79.819-38.768h0.003c0.069-0.072,9.061-9.151,9.061-9.151c3.787-3.824,9.669-5.145,16.776-5.564
		c8.262,0,150.929,0,155.9,0v-20.212h-28.393L208.435,101.912L208.435,101.912z"/>
	<path style="fill:#CE7657;" d="M123.681,93.487c5.59,0,10.122-4.531,10.122-10.122c0-5.59-4.531-10.122-10.122-10.122H8.71
		C7.936,75.01,7.5,76.958,7.5,79.011c0,7.958,6.451,14.409,14.408,14.409h20.039c-10.154,0.007-9.39-0.016-10.391,0.068
		C31.557,93.487,123.681,93.487,123.681,93.487z"/>
	<path style="fill:#CE7657;" d="M59.007,35.789c-30.083,0-25.738-0.012-26.768,0.028h91.441c5.59,0,10.122-4.531,10.122-10.122
		s-4.531-10.122-10.122-10.122H45.85C41.63,25.099,48.635,35.789,59.007,35.789z"/>
	<path style="fill:#CE7657;" d="M133.804,112.033c0-5.59-4.531-10.122-10.122-10.122H19.669c-4.296,9.533,2.69,20.251,13.121,20.243
		c10.212,0,81.712,0,90.892,0C129.271,122.155,133.804,117.624,133.804,112.033z"/>
	<path style="fill:#CE7657;" d="M19.508,64.819h104.173c5.59,0,10.122-4.531,10.122-10.122s-4.531-10.122-10.122-10.122H19.531
		c-4.011,9.46,2.932,20.027,13.27,20.027C20.752,64.603,21.175,64.539,19.508,64.819z"/>
</g>
<path style="fill:#FFA92C;" d="M492.497,12.559h-10.515H443.84h-22.706h-49.618c-6.627,0-12.001,5.373-12.001,12.001v3.816v63.844
	v43.282h144.983c0-10.606,0-101.097,0-110.942C504.498,17.932,499.124,12.559,492.497,12.559z"/>
<path style="fill:#EF8F11;" d="M379.985,28.377V24.56c0-6.627,5.373-12.001,12.001-12.001h-20.47
	c-6.627,0-12.001,5.373-12.001,12.001v3.816V92.22v43.282h20.47V92.22V28.377z"/>
<path style="fill:#EA976E;" d="M504.498,58.507c0-7.948-6.443-14.394-14.392-14.394c-7.951,0-14.397,6.444-14.397,14.394V32.301
	c0-7.957-6.449-14.408-14.407-14.408c-7.957,0-14.407,6.45-14.407,14.408V21.408C446.894,13.452,440.445,7,432.488,7
	c-7.958,0-14.409,6.451-14.409,14.408v20.039l-0.006-9.181c-0.006-7.944-6.453-14.38-14.397-14.375
	c-7.945,0.007-14.339,6.452-14.333,14.396v98.725L362.02,95.141c-11.894-16.649-33.145-2.087-26.128,13.134
	c29.184,66.785,29.897,71.034,38.768,79.819v0.003c0.072,0.069,9.151,9.061,9.151,9.061c3.824,3.787,5.145,9.669,5.565,16.776
	V341.44v28.393h93.747c0-4.106,0-151.793,0-155.9c0-6.487,1.111-10.948,6.033-16.853c18.855-20.513,15.356-11.447,15.298-90.417
	h0.045V58.507H504.498z"/>
<path style="fill:#F9C795;" d="M504.498,58.507c0-7.948-6.443-14.394-14.392-14.394c-7.951,0-14.397,6.444-14.397,14.394V32.301
	c0-7.957-6.449-14.408-14.407-14.408c-7.957,0-14.407,6.45-14.407,14.408V21.408C446.894,13.452,440.445,7,432.488,7
	c-7.958,0-14.409,6.451-14.409,14.408v20.039l-0.006-9.181c-0.006-7.944-6.453-14.38-14.397-14.375
	c-7.945,0.007-14.339,6.452-14.333,14.396v83.488c0,11.335-6.911,6.163-6.911,6.163l0,0L362.02,95.141
	c-11.894-16.649-33.145-2.087-26.128,13.134c29.184,66.785,29.897,71.034,38.768,79.819v0.003c0.072,0.069,9.151,9.061,9.151,9.061
	c3.824,3.787,5.145,9.669,5.565,16.776V341.44v28.393h93.747c0-4.106,0-151.793,0-155.9c0-6.487,1.111-10.948,6.033-16.853
	c18.855-20.513,15.356-11.447,15.298-90.417h0.045L504.498,58.507L504.498,58.507z"/>
<path style="fill:#E8AD7C;" d="M409.586,207.934c-0.42-7.107-1.74-12.989-5.564-16.776c0,0-9.078-8.992-9.151-9.061v-0.003
	c-8.872-8.785-9.586-13.036-38.768-79.819c-2.07-4.491-1.667-8.919,0.219-12.51c-11.805-6.985-26.422,5.513-20.431,18.51
	c29.184,66.785,29.897,71.034,38.768,79.819v0.003c0.072,0.069,9.151,9.061,9.151,9.061c3.824,3.787,5.145,9.669,5.565,16.776
	v127.507v28.393h20.212v-28.393V207.934H409.586z"/>
<path style="fill:#FF3E5A;" d="M486.938,359.014h-15.456h-52.204h-38.793v144.983c11.206,0,94.82,0,106.453,0
	c6.627,0,12.001-5.373,12.001-12.001v-4.699c0-4.727,0-112.048,0-116.282C498.938,364.388,493.565,359.014,486.938,359.014z"/>
<rect x="380.482" y="359.01" style="fill:#D82749;" width="35.969" height="144.978"/>
<path style="fill:#F0A479;" d="M504.498,431.988c0-7.959-6.451-14.409-14.408-14.409h-20.039l9.181-0.006
	c7.944-0.006,14.38-6.453,14.375-14.397c-0.007-7.945-6.452-14.339-14.396-14.333h-80.732c-15.501,0-5.707-9.358-5.707-9.358l0,0
	l23.586-17.966c16.649-11.894,2.087-33.145-13.134-26.128l-64.867,28.346c-0.105,0.049-8.693,4.102-14.952,10.423h-0.003
	c-0.069,0.072-9.062,9.151-9.062,9.151c-3.787,3.824-9.668,5.145-16.776,5.564H170.057l6.051,13.849
	c6.547,14.202-11.517,27.82-23.624,16.056v63.844c3.155,0,127.399,0,130.496,0c26.313,0,23.101-1.628,41.43,15.22
	c2.803,2.258,9.172,6.166,19.726,6.156l60.696-0.045v0.045h48.158c7.948,0,14.394-6.443,14.394-14.392
	c0-7.951-6.444-14.398-14.394-14.398h26.206c7.957,0,14.408-6.449,14.408-14.407c0-7.957-6.45-14.407-14.408-14.407h10.893
	C498.046,446.394,504.498,439.945,504.498,431.988z"/>
<g>
	<path style="fill:#EA976E;" d="M452.991,484.437h-48.159v-0.045l-60.696,0.045c-25.516,0.024-25.516-21.389-44.851-21.376
		c-3.419,0-132.524,0-146.801,0v20.56c1.755,0,143.14,0,146.801,0c10.497-0.007,15.883,6.723,25.124,15.22
		c2.803,2.258,9.173,6.166,19.726,6.156l60.696-0.045v0.045h48.159c11.649,0,19.442-15.58,10.539-25.173
		C460.901,482.655,457.158,484.437,452.991,484.437z"/>
	<path style="fill:#EA976E;" d="M384.183,466.223c0,5.28,4.28,9.561,9.561,9.561h63.245c-1.271-0.367-2.609-0.575-3.998-0.575
		h26.206c9.589,0,16.582-9.242,13.797-18.547h-99.25C388.464,456.662,384.183,460.942,384.183,466.223z"/>
	<path style="fill:#EA976E;" d="M384.183,436.888c0,5.28,4.28,9.562,9.561,9.562h86.532c-0.357-0.026-0.715-0.055-1.079-0.055
		h10.892c9.814,0,16.842-9.647,13.624-19.068H393.744C388.464,427.326,384.183,431.607,384.183,436.888z"/>
	<path style="fill:#EA976E;" d="M384.183,407.886c0,5.28,4.28,9.562,9.561,9.562h87.282c9.029-1.135,14.874-10.37,11.716-19.123
		h-98.998C388.464,398.325,384.183,402.606,384.183,407.886z"/>
</g>
<g>
	<path style="fill:#DB835D;" d="M45.276,383.683c-5.28,0-9.562,4.28-9.562,9.562v63.245c0.368-1.271,0.575-2.609,0.575-3.998v26.206
		c0,9.591,9.243,16.581,18.548,13.797v-99.25C54.837,387.964,50.556,383.683,45.276,383.683z"/>
	<path style="fill:#DB835D;" d="M74.61,383.683c-5.28,0-9.562,4.28-9.562,9.562v86.532c0.027-0.357,0.054-0.715,0.054-1.079v10.892
		c0,9.814,9.648,16.842,19.068,13.624V393.244C84.172,387.964,79.891,383.683,74.61,383.683z"/>
	<path style="fill:#DB835D;" d="M103.612,383.683c-5.28,0-9.562,4.28-9.562,9.562v87.282c1.134,9.028,10.369,14.874,19.123,11.716
		v-98.998C113.173,387.964,108.892,383.683,103.612,383.683z"/>
</g>
<g>
	<path style="fill:#E8AD7C;" d="M418.011,123.181c0,5.59,4.531,10.122,10.122,10.122s10.122-4.531,10.122-10.122V8.209
		C436.488,7.435,434.54,7,432.488,7c-7.958,0-14.409,6.451-14.409,14.408v20.039l-0.006-9.181c0-0.409-0.028-0.81-0.062-1.21
		V123.181z"/>
	<path style="fill:#E8AD7C;" d="M475.709,58.507c0-30.049,0.012-25.747-0.028-26.768v91.442c0,5.59,4.531,10.122,10.122,10.122
		s10.122-4.531,10.122-10.122V45.349C486.399,41.129,475.709,48.135,475.709,58.507z"/>
	<path style="fill:#E8AD7C;" d="M399.465,133.303c5.59,0,10.122-4.531,10.122-10.122V19.168c-1.805-0.814-3.802-1.277-5.91-1.276
		c-7.945,0.007-14.339,6.452-14.333,14.396c0,10.212,0,81.712,0,90.892C389.342,128.771,393.874,133.303,399.465,133.303z"/>
	<path style="fill:#E8AD7C;" d="M446.678,19.008v104.173c0,5.59,4.531,10.122,10.122,10.122c5.59,0,10.122-4.531,10.122-10.122
		V19.031c-9.459-4.011-20.027,2.933-20.027,13.27V21.408C446.894,20.589,446.81,19.79,446.678,19.008z"/>
</g>
<path d="M492.497,5.559h-45.451C443.173,2.105,438.073,0,432.488,0c-5.586,0-10.687,2.105-14.561,5.559h-46.412
	c-9.493,0-17.413,6.821-19.141,15.817H239.275c0-10.242-15.001-10.251-15.001,0c-19.641,0-15.909,1.191-31.61-13.242
	c-0.12-0.11-0.244-0.216-0.371-0.318C188.67,4.897,180.683,0,167.857,0l-59.87,0.044C107.716,0.015,107.443,0,107.165,0
	C89.889,0,41.96,0,25.06,0C14.308,0,5.559,8.749,5.559,19.501v45.451C2.106,68.825,0,73.925,0,79.511
	c0,5.586,2.105,10.687,5.559,14.561v46.412c0,9.493,6.821,17.413,15.817,19.141v109.72c-11.263,0-11.281,15.001,0,15.001v14.945
	C21.386,313.983-0.026,315.287,0,344.142l0.044,59.87C0.015,404.281,0,404.555,0,404.832c0,17.278,0,65.206,0,82.107
	c0,10.753,8.748,19.501,19.501,19.501h45.452c8.32,7.418,20.807,7.409,29.118,0h46.413c9.493,0,17.413-6.821,19.141-15.817h116.691
	c0.904,8.915,14.018,8.927,14.924,0c7.569,0,12.727-0.9,18.102,4.055l0,0c8.264,7.596,15.389,17.321,34.801,17.321
	c0.278,0,130.893,0,142.797,0c10.753,0,19.501-8.748,19.501-19.501v-45.451c7.418-8.322,7.409-20.807,0-29.119v-46.412
	c0-9.493-6.821-17.413-15.817-19.141v-40.528c0-4.143-3.358-7.5-7.5-7.5s-7.5,3.357-7.5,7.5v40.168h-44.56
	c2.029-14.433-11.638-28.865-27.909-24.071c-1.919,0.576-1.605,0.494-6.279,2.536v-91.137h78.746v37.502c0,4.143,3.358,7.5,7.5,7.5
	s7.5-3.357,7.5-7.5v-37.512c4.064-0.089,7.334-3.404,7.334-7.491c0-4.087-3.27-7.402-7.334-7.491
	c0-11.217-0.926-16.272,4.055-21.692c8.193-8.913,17.338-16.064,17.321-34.801c0-0.272,0-130.903,0-142.796
	C511.998,14.307,503.25,5.559,492.497,5.559z M367.015,25.06c0-2.482,2.019-4.5,4.5-4.5h14.056
	c-2.411,3.721-3.733,7.713-3.728,12.229v76.5c-0.102-0.134-14.721-19.329-14.827-19.459C367.015,82.59,367.015,31.8,367.015,25.06z
	 M239.275,36.377h112.739v44.567c-16.292-2.192-30.446,14.525-22.969,30.898l1.434,3.282h-91.204L239.275,36.377L239.275,36.377z
	 M20.56,19.501c0-2.481,2.019-4.5,4.5-4.5h13.165c-1.397,4.172-1.547,9.131,0.001,13.788c-4.732,0-7.85-0.284-11.932,0.986
	c-0.001,0-0.002,0-0.002,0c-2.014,0.629-4.012,1.596-5.731,2.76L20.56,19.501L20.56,19.501z M19.914,86.123
	c-0.137-0.042-0.5-0.175-0.565-0.201c-0.188-0.077-0.322-0.141-0.504-0.229c-0.447-0.225-0.818-0.468-1.221-0.774
	c-3.573-2.839-3.429-8.178,0.052-10.849c0.545-0.425,1.157-0.777,1.865-1.039c0.768-0.286,1.569-0.427,2.369-0.427
	c10.981,0,84.978,0,96.772,0c4.142,0,7.5-3.358,7.5-7.5c0-4.142-3.358-7.5-7.5-7.5c-10.754,0-75.132,0-85.88,0
	c-3.809,0-6.907-3.098-6.907-6.906c0-3.808,3.099-6.906,6.907-6.906c9.692,0,72.65,0,85.88,0c4.142,0,7.5-3.358,7.5-7.5
	s-3.358-7.5-7.5-7.5c-7.462,0-52.198,0-59.673,0c-3.801,0-6.893-3.094-6.893-6.896c0-3.799,3.092-6.891,6.893-6.891
	c94.273,0-3.364,0.083,108.894,0c7.96,0,12.643,2.669,14.809,4.361c19.618,18.032,19.412,17.015,41.563,17.015v78.746
	c-26.131,0-26.429,2.184-41.008,16.938c-10.511,10.614-33.342,16.749-77.629,37.234c-6.736,3.106-15.075-6.039-5.449-13.351
	l35.871-27.324c5.695-4.337,2.614-13.467-4.544-13.467H32.78c-3.793,0-6.881-3.068-6.885-6.836
	c-0.002-3.797,3.084-6.889,6.879-6.892h85.908c4.142,0,7.5-3.358,7.5-7.5c0-4.142-3.358-7.5-7.5-7.5
	c-86.744,0-75.756-0.006-76.733-0.006c-2.508,0-17.53,0-20.039,0c-0.471,0-0.932-0.048-1.376-0.139
	C20.491,86.272,20.034,86.159,19.914,86.123z M102.658,184.997c0.782,0,1.559-0.043,2.336-0.128c3.978-0.439,6.36-1.702,10.13-3.349
	v87.825H36.377v-109.36h44.541C79.193,172.522,89.243,184.997,102.658,184.997z M20.56,140.483v-14.06
	c7.657,5.061,7.007,3.732,88.729,3.732c-0.178,0.135-19.284,14.685-19.459,14.827H28.877H25.06
	C22.578,144.983,20.56,142.964,20.56,140.483z M19.501,491.439c-2.481,0-4.5-2.019-4.5-4.5v-13.165
	c4.285,1.421,9.163,1.538,13.788-0.001c0,4.944-0.74,11.025,3.747,17.666H19.501z M144.983,486.939c0,2.481-2.018,4.5-4.5,4.5
	h-14.035c0.013-0.019,0.024-0.039,0.036-0.058c0.239-0.359,0.687-1.094,0.995-1.657c0.282-0.518,0.6-1.165,0.879-1.81
	c0.33-0.766,0.595-1.438,0.86-2.311c0.13-0.428,0.324-1.185,0.467-1.871c0.1-0.478,0.231-1.262,0.314-1.987
	c0.097-0.866,0.157-1.659,0.157-2.534v-76.499c0.227,0.298,14.594,19.165,14.827,19.458
	C144.983,429.408,144.983,480.198,144.983,486.939z M128.622,375.939c-1.95-2.56-5.314-3.591-8.365-2.561
	c-3.049,1.029-5.102,3.889-5.102,7.107c0,107.714,0.758,100.836-2.002,103.609c-1.283,1.292-3.002,2.009-4.841,2.01
	c-3.815,0-6.885-3.11-6.885-6.878v-85.908c0-4.143-3.358-7.5-7.5-7.5s-7.5,3.357-7.5,7.5c0,7.842,0.205,97.085-0.302,98.767
	c-0.12,0.393-0.275,0.759-0.428,1.066c-2.314,4.599-8.503,5.177-11.625,1.173c-0.412-0.527-0.768-1.135-1.04-1.869
	c-0.282-0.761-0.426-1.557-0.426-2.365c0-10.4,0-87.037,0-96.771c0-4.143-3.358-7.5-7.5-7.5s-7.5,3.357-7.5,7.5v85.88
	c0,3.809-3.098,6.906-6.906,6.906c-3.808,0-6.906-3.098-6.906-6.906c0-9.944,0-77.829,0-85.88c0-4.143-3.358-7.5-7.5-7.5
	s-7.5,3.357-7.5,7.5v59.673c0,3.801-3.094,6.893-6.896,6.893c-3.799,0-6.891-3.092-6.891-6.893c0-117.152,0.097,21.972,0-108.862
	c-0.007-7.979,2.667-12.672,4.361-14.842c18.407-20.024,17.015-18.891,17.015-44.942h78.746c0,10.624-1.472,26.153,7.787,35.322
	c19.764,19.577,12.589,9.356,46.324,86.559c1.75,4.017,0.052,7.541-3.217,9.211c-0.001,0-0.002,0.001-0.003,0.001
	c-0.896,0.458-2.226,0.914-3.778,0.76C157.767,415.746,157.597,413.978,128.622,375.939z M276.277,381.874h-37.211
	c-4.142,0-7.5,3.358-7.5,7.5c0,4.143,3.358,7.5,7.5,7.5h37.211v78.746H159.984v-44.56c15.469,2.227,29.284-13.127,23.767-28.898
	c-0.373-1.074-0.452-1.218-2.231-5.29h22.543c4.142,0,7.5-3.357,7.5-7.5c0-4.142-3.358-7.5-7.5-7.5h-29.099
	c-19.99-45.747-22.522-54.2-32.388-63.845c-0.474-0.467-9.109-9.018-9.11-9.02c-4.389-4.347-3.342-17.97-3.342-24.664
	c12.473,0,10.766-15.001,1.389-15.001h-1.389v-94.38c45.833-20.028,54.153-22.501,63.829-32.373
	c12.351-12.541,9.74-12.467,30.501-12.467c1.719,7.787,12.914,7.815,14.64,0h97.941c20.019,45.813,22.475,54.107,32.373,63.829
	c0.324,0.318,9.125,9.035,9.125,9.035c4.047,4.008,3.342,15.505,3.342,21.353c-12.473,0-10.766,15.001-1.389,15.001h1.389v97.694
	l-46.522,20.328c-0.05,0.021-0.099,0.043-0.148,0.066c-4.966,2.299-12.286,7.055-17.159,11.978
	c-0.319,0.324-9.035,9.124-9.036,9.125c-3.632,3.666-13.297,3.342-17.732,3.342v-1.389
	C291.277,371.198,276.277,369.338,276.277,381.874z M491.438,492.497c0,2.482-2.019,4.5-4.5,4.5h-13.165
	c1.422-4.275,1.528-9.188-0.002-13.788c6.927,0,10.904,0.502,17.666-3.746v13.034H491.438z M422.167,367.016
	c7.24,0,58.03,0,64.771,0c2.481,0,4.5,2.019,4.5,4.5v14.056c-3.11-2.095-6.691-3.367-10.702-3.671
	c-0.519-0.035-1.011-0.058-1.527-0.058h-76.5C402.904,381.694,421.978,367.172,422.167,367.016z M411.935,342.585
	c3.11,1.473,5.325,5.257,3.822,8.97c-1.249,3.007-0.104,1.571-39.817,31.822c-5.695,4.336-2.613,13.467,4.544,13.467
	c21.524,0,87.225,0,98.736,0c3.793,0,6.881,3.067,6.885,6.837c0.002,3.797-3.084,6.889-6.879,6.892h-85.908
	c-4.142,0-7.5,3.357-7.5,7.5s3.358,7.5,7.5,7.5c104.587,0,97.719-0.278,99.733,0.682c5.301,2.588,5.202,9.965,0.023,12.452
	c-1.833,0.894-2.314,0.688-13.872,0.688c-7.847,0-70.037,0-85.884,0c-4.142,0-7.5,3.357-7.5,7.5c0,4.143,3.358,7.5,7.5,7.5h85.88
	c3.809,0,6.907,3.098,6.907,6.906c0,3.81-3.102,6.906-6.907,6.906h-24.107c-6.95,0-55.962,0-61.772,0c-4.142,0-7.5,3.357-7.5,7.5
	s3.358,7.5,7.5,7.5h59.673c3.801,0,6.892,3.094,6.892,6.897c0,3.8-3.092,6.891-6.892,6.891c-0.006,0-108.889,0-108.895,0
	c-7.957,0-12.642-2.669-14.809-4.36c-9.57-8.796-16.484-17.016-30.003-17.016h-8.007v-78.746c34.818,0,27.076-14.582,50.188-25.811
	C411.992,340.243,408.37,340.929,411.935,342.585z M496.997,167.869c0.007,7.979-2.667,12.671-4.36,14.842
	c-18.073,19.663-17.016,19.468-17.016,41.63h-78.746c0-26.475-2.492-26.798-16.815-40.951c-0.04-0.042-0.082-0.084-0.124-0.125
	c-10.615-10.512-16.746-33.337-37.234-77.63c-0.207-0.448-0.321-0.797-0.438-1.212c-1.554-5.609,4.876-10.807,10.19-7.737
	c3.833,2.229,29.586,38.771,32.474,40.876c0.665,0.485,1.224,0.791,2.088,1.073c1.514,0.498,3.107,0.493,4.594,0.018
	c3.207-1.012,5.232-3.954,5.232-7.139c0-105.521-0.145-99.312,0.307-100.775c1.029-3.328,4.415-5.424,7.92-4.705
	c3.134,0.643,5.499,3.42,5.502,6.739v85.908c0,4.142,3.358,7.5,7.5,7.5c4.142,0,7.5-3.358,7.5-7.5V42.064
	c0.137-10.678-0.226-19.996,0.202-21.76c0.118-0.494,0.269-0.92,0.49-1.375c2.213-4.583,8.427-5.354,11.664-1.254
	c0.428,0.549,0.772,1.153,1.039,1.864c0.286,0.772,0.427,1.567,0.427,2.37c0,10.4,0,87.028,0,96.772c0,4.142,3.358,7.5,7.5,7.5
	s7.5-3.358,7.5-7.5V32.801c0-3.809,3.098-6.907,6.906-6.907s6.906,3.099,6.906,6.907v24.108c0,6.95,0,55.962,0,61.771
	c0,4.142,3.358,7.5,7.5,7.5c4.142,0,7.5-3.358,7.5-7.5V59.007c0-3.801,3.094-6.893,6.896-6.893c3.799,0,6.891,3.092,6.891,6.893
	C496.997,109.088,496.99,157.868,496.997,167.869z M496.997,38.224c-4.188-1.389-9.091-1.56-13.788,0.001
	c0-5.422,0.131-7.229-0.528-10.19c-0.229-1.024-0.459-1.745-0.459-1.745c-0.628-2.015-1.598-4.014-2.76-5.731h13.035
	c2.481,0,4.5,2.018,4.5,4.5L496.997,38.224L496.997,38.224z"/>
<g>
</g>
<g>
</g>
<g>
</g>
<g>
</g>
<g>
</g>
<g>
</g>
<g>
</g>
<g>
</g>
<g>
</g>
<g>
</g>
<g>
</g>
<g>
</g>
<g>
</g>
<g>
</g>
<g>
</g>
</svg>
