<?xml version="1.0" encoding="utf-8"?>
<!-- Generator: Adobe Illustrator 16.0.0, SVG Export Plug-In . SVG Version: 6.00 Build 0)  -->
<!DOCTYPE svg PUBLIC "-//W3C//DTD SVG 1.1//EN" "http://www.w3.org/Graphics/SVG/1.1/DTD/svg11.dtd">
<svg version="1.1" xmlns="http://www.w3.org/2000/svg" xmlns:xlink="http://www.w3.org/1999/xlink" x="0px" y="0px" width="1500px"
	 height="1000px" viewBox="0 0 1500 1000" enable-background="new 0 0 1500 1000" xml:space="preserve">
<g id="Capa_1" display="none">
	<g id="Capa_2_1_">
		<path display="inline" fill="#F19E22" d="M0,84.289v500c0,0,412.908-683.334,750-399c398.405,336.05,750,399,750,399v-500"/>
		<rect y="-2" display="inline" fill="#F19E22" width="1500" height="86.289"/>
	</g>
	<g id="Capa_1_1_" display="inline">
		<g id="Layer_1">
			<path fill="#785546" d="M648.408,702.254c77.877-9.746,175.297-41.5,218.699-56.604c13.471-4.688,21.344-15.306,19.67-26.378
				c-4.932-32.609-14.186-106.409-14.23-201.079c-0.049-92.964-100.328-169.031-224.139-169.028l0,0l0,0
				c-123.813,0-224.091,76.068-224.138,169.031c-0.051,94.667-9.305,168.465-14.23,201.076c-1.674,11.073,6.199,21.689,19.67,26.378
				C473.112,660.753,570.527,692.508,648.408,702.254z"/>
			<path fill="#64463C" d="M562.201,417.455v-64.729c0-51.32,49.771-93.809,115.018-102.018c-9.455-0.915-19.023-1.545-28.813-1.545
				c-123.786,0-224.137,75.346-224.137,168.291c0,95.128-9.312,169.286-14.248,201.925c-1.673,11.054,6.237,21.592,19.685,26.271
				c43.402,15.104,140.823,46.858,218.702,56.604V456.291L562.201,417.455z"/>
			<path fill="#E6AF78" d="M912.916,756.245l-149.711-56.204c-17.523-6.578-28.592-20.026-28.592-34.736v-40.724H562.199v40.724
				c0,14.71-11.068,28.158-28.594,34.736l-149.71,56.204c-17.523,6.579-28.593,20.026-28.593,34.736v53.671
				c0,7.146,7.719,12.943,17.242,12.943v129.455c0,7.148,7.719,12.946,17.242,12.946h534.48V857.6
				c9.523,0,17.242-5.797,17.242-12.944v-53.67C941.508,776.273,930.439,762.824,912.916,756.245z"/>
			<g>
				<path fill="#D29B6E" d="M372.544,844.653v38.837h34.482c9.521,0,17.24,5.795,17.24,12.944v103.563h51.727V844.653H372.544z"/>
				<path fill="#D29B6E" d="M562.201,662.823c25.377,8.266,53.021,13.11,82.021,13.51l4.186,0.029
					c30.539,0,59.65-4.644,86.207-12.983v-38.798H562.201V662.823z"/>
			</g>
			<path fill="#F0C087" d="M575.035,396.74c-7.246-2.745-15.152-1.041-21.184,3.037c-26.135,17.677-60.616,56.514-95.101,56.514
				v0.001c-19.045,0-34.482,11.591-34.482,25.89c0,14.301,15.439,25.892,34.482,25.892h0.307
				c3.225,76.351,83.507,140.97,185.798,142.376c106.367,1.46,193.207-62.844,193.207-142.376
				C838.061,420.636,693.598,441.671,575.035,396.74z"/>
			<path fill="#E6AF78" d="M562.201,508.072V396.205c-2.975,0.726-5.84,1.877-8.35,3.572
				c-26.135,17.677-60.616,56.514-95.101,56.514v0.001c-19.045,0-34.482,11.591-34.482,25.89c0,14.301,15.439,25.892,34.482,25.892
				h0.307c3.225,76.351,83.507,140.97,185.798,142.376c19.27,0.265,37.863-1.689,55.451-5.442
				C620.648,628.127,562.201,573.282,562.201,508.072z"/>
			<path fill="#D29B6E" d="M648.406,585.744c-23.811,0-46.066-5.646-62.668-15.891c-7.357-4.538-8.418-12.698-2.375-18.226
				c6.025-5.499,16.902-6.328,24.262-1.774c20.609,12.704,60.951,12.704,81.561,0c7.357-4.552,18.234-3.725,24.264,1.774
				c6.045,5.524,4.982,13.688-2.375,18.226C694.475,580.1,672.215,585.744,648.406,585.744z"/>
			<path fill="#553732" d="M734.613,508.072c-9.529,0-17.242-5.797-17.242-12.946V482.18c0-7.146,7.711-12.943,17.242-12.943
				c9.527,0,17.242,5.797,17.242,12.943v12.946C751.854,502.275,744.145,508.072,734.613,508.072z"/>
			<path fill="#B4E66E" d="M922.447,759.823L815.813,719.79c-18.279,56.759-86.193,98.972-167.404,98.972
				s-149.124-42.215-167.405-98.972l-106.635,40.033c-11.682,4.387-19.063,13.352-19.063,23.159v61.671
				c0,7.147,7.719,12.944,17.242,12.944h86.207v142.399h396.55V857.6h86.207v-74.615
				C941.508,773.175,934.131,764.21,922.447,759.823z"/>
			<g>
				<path fill="#A0D755" d="M815.811,719.792c-18.279,56.758-86.193,98.971-167.404,98.971S499.281,776.549,481,719.792
					l-31.518,11.831c24.563,65.201,104.22,113.03,198.923,113.03c94.702,0,174.357-47.829,198.924-113.03L815.811,719.792z"/>
				<path fill="#A0D755" d="M941.508,790.981v53.672c0,7.147-7.719,12.944-17.242,12.944h-86.207v-15.167
					c0-6.863,3.633-13.449,10.102-18.307l79.35-59.579C936.297,771.618,941.508,780.979,941.508,790.981z"/>
			</g>
			<path fill="#553732" d="M562.201,508.072c-9.529,0-17.242-5.797-17.242-12.946V482.18c0-7.146,7.711-12.943,17.242-12.943
				c9.529,0,17.242,5.797,17.242,12.943v12.946C579.441,502.275,571.73,508.072,562.201,508.072z"/>
			<path fill="#D7B48D" d="M1010.474,818.763H838.061l-31.672,166.46c-1.482,7.801,6.576,14.776,17.068,14.776h201.62
				c10.491,0,18.553-6.978,17.066-14.776L1010.474,818.763z"/>
			<path fill="#C09B78" d="M1010.474,818.763H838.061l-6.514,34.23c16.893,25.688,52.053,43.439,92.721,43.439
				s75.825-17.755,92.722-43.439L1010.474,818.763z"/>
			<path fill="#553732" d="M855.303,624.581l-40.895-30.705c-6.256-4.697-16.164-5.098-23.035-0.915
				c-21.377,13.012-65.74,41.734-91.244,70.456c0,0,34.482,64.728,103.449,77.674L855.303,624.581z"/>
			<path fill="#64463C" d="M814.406,593.876c-3.916-2.94-9.24-3.987-14.379-3.49c-14.021,19.266-61.721,94.595,2.979,150.567
				c0.195,0.036,0.373,0.1,0.566,0.136l51.729-116.508L814.406,593.876z"/>
			<path fill="#553732" d="M993.23,624.581l40.896-30.705c6.256-4.697,16.164-5.098,23.035-0.915
				c21.377,13.012,65.74,41.734,91.244,70.456c0,0-34.482,64.728-103.449,77.674L993.23,624.581z"/>
			<path fill="#64463C" d="M1034.126,593.876c3.916-2.94,9.24-3.987,14.379-3.49c14.021,19.266,61.719,94.595-2.979,150.567
				c-0.195,0.036-0.373,0.1-0.566,0.136l-51.728-116.508L1034.126,593.876z"/>
			<path fill="#EBC9A0" d="M924.268,844.653L924.268,844.653c-76.178,0-137.932-46.367-137.932-103.564v-38.836
				c0-57.197,61.754-103.563,137.932-103.563l0,0c76.179,0,137.933,46.364,137.933,103.563v38.836
				C1062.198,798.286,1000.444,844.653,924.268,844.653z"/>
			<path fill="#D7B48D" d="M855.303,741.089v-38.836c0-48.238,43.99-88.655,103.449-100.169
				c-11.039-2.139-22.553-3.395-34.482-3.395c-76.178,0-137.932,46.364-137.932,103.563v38.836
				c0,57.197,61.754,103.564,137.932,103.564c11.932,0,23.443-1.259,34.482-3.396C899.291,829.747,855.303,789.329,855.303,741.089z
				"/>
			<ellipse fill="#F5DCB4" cx="924.275" cy="818.757" rx="68.964" ry="51.781"/>
			<g>
				<ellipse fill="#FAEBC8" cx="872.537" cy="805.822" rx="51.725" ry="38.837"/>
				<ellipse fill="#FAEBC8" cx="975.994" cy="805.822" rx="51.724" ry="38.837"/>
			</g>
			<g>
				<ellipse fill="#553732" cx="924.275" cy="779.925" rx="34.48" ry="25.891"/>
				<path fill="#553732" d="M855.303,741.089c-9.529,0-17.242-5.797-17.242-12.945v-12.944c0-7.149,7.711-12.946,17.242-12.946
					s17.242,5.797,17.242,12.946v12.944C872.543,735.294,864.832,741.089,855.303,741.089z"/>
				<path fill="#553732" d="M993.23,741.089c-9.527,0-17.24-5.797-17.24-12.945v-12.944c0-7.149,7.711-12.946,17.24-12.946
					c9.53,0,17.241,5.797,17.241,12.946v12.944C1010.474,735.294,1002.763,741.089,993.23,741.089z"/>
			</g>
			<path fill="#C09B78" d="M975.992,935.266c-9.529,0-17.242,5.797-17.242,12.946v0.024c0,14.289-15.428,25.872-34.457,25.872l0,0
				c-19.031,0-34.457-11.584-34.457-25.872v-0.024c0-7.149-7.711-12.946-17.242-12.946s-17.242,5.797-17.242,12.946v51.787
				l0.002,0.001h34.434h0.049h68.918h0.002l0,0h34.479l0.004-0.001v-51.787C993.23,941.061,985.521,935.266,975.992,935.266z"/>
			<path fill="#A0D755" d="M448.653,824.124l-81.115-60.904c-7.645,4.854-12.232,12.041-12.232,19.765v61.671
				c0,7.148,7.719,12.944,17.242,12.944h86.207v-15.167C458.753,835.565,455.12,828.979,448.653,824.124z"/>
		</g>
	</g>
</g>
<g id="Capa_2">
	<g>
		<path fill="#785546" d="M690.684,772.612c44.655-7.443,100.518-31.694,125.405-43.229c7.724-3.579,12.238-11.688,11.278-20.145
			c-2.826-24.904-8.132-81.265-8.159-153.564c-0.029-70.997-57.53-129.089-128.524-129.087l0,0l0,0
			c-70.997,0-128.498,58.094-128.524,129.089c-0.028,72.298-5.334,128.657-8.16,153.563c-0.96,8.458,3.555,16.565,11.279,20.145
			C590.166,740.917,646.024,765.169,690.684,772.612z"/>
		<path fill="#64463C" d="M641.25,555.11v-49.432c0-39.195,28.541-71.642,65.954-77.912c-5.422-0.699-10.91-1.18-16.521-1.18
			c-70.981,0-128.523,57.542-128.523,128.523c0,72.649-5.339,129.284-8.17,154.21c-0.959,8.442,3.577,16.49,11.287,20.063
			c24.887,11.534,80.75,35.787,125.407,43.229V584.77L641.25,555.11z"/>
		<path fill="#E6AF78" d="M842.356,813.846l-85.847-42.924c-10.049-5.023-16.396-15.294-16.396-26.527v-31.102h-98.865v31.102
			c0,11.233-6.347,21.504-16.396,26.527l-85.846,42.924c-10.049,5.023-16.396,15.293-16.396,26.527v40.987
			c0,5.46,4.427,9.887,9.888,9.887v98.864c0,5.46,4.426,9.888,9.887,9.888h306.479v-108.75c5.462,0,9.889-4.428,9.889-9.888v-40.987
			C858.751,829.141,852.404,818.869,842.356,813.846z"/>
		<g>
			<path fill="#D29B6E" d="M532.499,881.361v29.66h19.772c5.46,0,9.887,4.426,9.887,9.887v79.091h29.659V881.361H532.499z"/>
			<path fill="#D29B6E" d="M641.25,742.498c14.552,6.313,30.404,10.015,47.034,10.317l2.399,0.022
				c17.511,0,34.204-3.545,49.432-9.914v-29.631H641.25V742.498z"/>
		</g>
		<path fill="#F0C087" d="M648.609,539.29c-4.155-2.097-8.688-0.795-12.146,2.319c-14.986,13.5-34.76,43.16-54.532,43.16l0,0
			c-10.921,0-19.772,8.853-19.772,19.772c0,10.921,8.854,19.773,19.772,19.773h0.176c1.849,58.309,47.883,107.658,106.539,108.731
			c60.993,1.116,110.787-47.992,110.787-108.731C799.433,557.54,716.596,573.604,648.609,539.29z"/>
		<path fill="#E6AF78" d="M641.25,624.315v-85.435c-1.704,0.555-3.349,1.435-4.786,2.729c-14.986,13.5-34.76,43.16-54.532,43.16l0,0
			c-10.921,0-19.772,8.853-19.772,19.772c0,10.921,8.854,19.773,19.772,19.773h0.176c1.849,58.309,47.883,107.658,106.539,108.731
			c11.049,0.203,21.712-1.289,31.797-4.155C674.766,716.001,641.25,674.116,641.25,624.315z"/>
		<path fill="#D29B6E" d="M690.683,683.634c-13.652,0-26.416-4.312-35.936-12.137c-4.219-3.466-4.827-9.697-1.361-13.917
			c3.455-4.2,9.692-4.833,13.912-1.356c11.817,9.703,34.95,9.703,46.768,0c4.219-3.476,10.456-2.844,13.912,1.356
			c3.466,4.219,2.858,10.451-1.361,13.917C717.099,679.322,704.335,683.634,690.683,683.634z"/>
		<path fill="#553732" d="M740.114,624.315c-5.464,0-9.887-4.428-9.887-9.888v-9.886c0-5.46,4.422-9.887,9.887-9.887
			s9.887,4.427,9.887,9.887v9.886C750,619.888,745.58,624.315,740.114,624.315z"/>
		<path fill="#B4E66E" d="M847.82,816.577l-61.145-30.573c-10.483,43.347-49.426,75.584-95.993,75.584
			c-46.568,0-85.511-32.238-95.993-75.584l-61.146,30.573c-6.698,3.351-10.93,10.197-10.93,17.687v47.098
			c0,5.46,4.425,9.888,9.887,9.888h49.432v108.75h227.388v-108.75h49.434v-56.985C858.751,826.774,854.521,819.928,847.82,816.577z"
			/>
		<g>
			<path fill="#A0D755" d="M786.674,786.005c-10.482,43.347-49.426,75.584-95.993,75.584s-85.51-32.238-95.992-75.584l-18.073,9.036
				c14.086,49.794,59.761,86.32,114.065,86.32s99.979-36.526,114.066-86.32L786.674,786.005z"/>
			<path fill="#A0D755" d="M858.751,840.373v40.988c0,5.46-4.427,9.888-9.887,9.888h-49.433v-11.583
				c0-5.243,2.083-10.273,5.791-13.981l45.501-45.5C855.764,825.585,858.751,832.734,858.751,840.373z"/>
		</g>
		<path fill="#553732" d="M641.25,624.315c-5.464,0-9.887-4.428-9.887-9.888v-9.886c0-5.46,4.422-9.887,9.887-9.887
			s9.888,4.427,9.888,9.887v9.886C651.136,619.888,646.715,624.315,641.25,624.315z"/>
		<path fill="#D7B48D" d="M898.296,861.589h-98.863l-18.161,127.125c-0.852,5.956,3.771,11.285,9.788,11.285h115.61
			c6.017,0,10.639-5.329,9.787-11.285L898.296,861.589z"/>
		<path fill="#C09B78" d="M898.296,861.589h-98.863l-3.735,26.142c9.687,19.619,29.848,33.177,53.167,33.177
			s43.479-13.56,53.167-33.177L898.296,861.589z"/>
		<path fill="#553732" d="M809.319,713.293l-23.449-23.449c-3.588-3.588-9.269-3.894-13.209-0.699
			c-12.258,9.937-37.696,31.872-52.32,53.808c0,0,19.772,49.433,59.318,59.319L809.319,713.293z"/>
		<path fill="#64463C" d="M785.868,689.844c-2.244-2.246-5.298-3.046-8.244-2.666c-8.039,14.712-35.391,72.242,1.709,114.988
			c0.112,0.028,0.214,0.076,0.325,0.104l29.661-88.978L785.868,689.844z"/>
		<path fill="#553732" d="M888.409,713.293l23.449-23.449c3.588-3.588,9.269-3.894,13.209-0.699
			c12.258,9.937,37.695,31.872,52.321,53.808c0,0-19.773,49.433-59.319,59.319L888.409,713.293z"/>
		<path fill="#64463C" d="M911.858,689.844c2.246-2.246,5.298-3.046,8.245-2.666c8.039,14.712,35.391,72.242-1.709,114.988
			c-0.112,0.028-0.213,0.076-0.324,0.104l-29.661-88.978L911.858,689.844z"/>
		<path fill="#EBC9A0" d="M848.864,881.361L848.864,881.361c-43.681,0-79.091-35.41-79.091-79.091v-29.66
			c0-43.681,35.41-79.091,79.091-79.091l0,0c43.681,0,79.092,35.41,79.092,79.091v29.66
			C927.956,845.951,892.545,881.361,848.864,881.361z"/>
		<path fill="#D7B48D" d="M809.319,802.271v-29.66c0-36.839,25.226-67.706,59.32-76.499c-6.331-1.632-12.933-2.592-19.773-2.592
			c-43.682,0-79.092,35.41-79.092,79.091v29.66c0,43.681,35.41,79.091,79.092,79.091c6.841,0,13.442-0.96,19.773-2.593
			C834.543,869.978,809.319,839.111,809.319,802.271z"/>
		<circle fill="#F5DCB4" cx="848.869" cy="861.585" r="39.545"/>
		<g>
			<circle fill="#FAEBC8" cx="819.201" cy="851.707" r="29.659"/>
			<circle fill="#FAEBC8" cx="878.525" cy="851.707" r="29.659"/>
		</g>
		<g>
			<circle fill="#553732" cx="848.869" cy="831.929" r="19.773"/>
			<path fill="#553732" d="M809.319,802.271c-5.464,0-9.887-4.427-9.887-9.887v-9.888c0-5.459,4.422-9.887,9.887-9.887
				c5.466,0,9.887,4.428,9.887,9.887v9.888C819.205,797.844,814.784,802.271,809.319,802.271z"/>
			<path fill="#553732" d="M888.409,802.271c-5.463,0-9.887-4.427-9.887-9.887v-9.888c0-5.459,4.423-9.887,9.887-9.887
				c5.466,0,9.887,4.428,9.887,9.887v9.888C898.296,797.844,893.875,802.271,888.409,802.271z"/>
		</g>
		<path fill="#C09B78" d="M878.524,950.563c-5.465,0-9.887,4.427-9.887,9.887v0.019c0,10.913-8.846,19.758-19.759,19.758l0,0
			c-10.912,0-19.757-8.846-19.757-19.758v-0.019c0-5.46-4.423-9.887-9.887-9.887c-5.466,0-9.888,4.427-9.888,9.887v39.55
			l0.001,0.001h19.744h0.027h39.52l0,0l0,0h19.77l0.002-0.001v-39.55C888.409,954.988,883.988,950.563,878.524,950.563z"/>
		<path fill="#A0D755" d="M576.141,865.684l-46.513-46.513c-4.384,3.707-7.014,9.197-7.014,15.093v47.099
			c0,5.461,4.426,9.887,9.887,9.887h49.432v-11.582C581.932,874.422,579.849,869.392,576.141,865.684z"/>
	</g>
</g>
<g id="Capa_3">
	<path fill="#F19E22" d="M1500,0c0,0-249.5,250.337-749.5,250.337S0,501.009,0,501.009V0L1500,0z"/>
</g>
</svg>
